Atma-Bold.ufo
<glyph name="two" format="1">
  <advance width="551"/>
  <unicode hex="0032"/>
  <outline>
    <contour>
      <point x="516" y="453" type="curve" smooth="yes"/>
      <point x="516" y="562"/>
      <point x="419" y="641"/>
      <point x="276" y="641" type="curve" smooth="yes"/>
      <point x="136" y="641"/>
      <point x="45" y="577"/>
      <point x="6" y="430" type="curve"/>
      <point x="57" y="405"/>
      <point x="117" y="395"/>
      <point x="189" y="395" type="curve"/>
      <point x="209" y="498"/>
      <point x="232" y="532"/>
      <point x="268" y="532" type="curve" smooth="yes"/>
      <point x="297" y="532"/>
      <point x="310" y="519"/>
      <point x="310" y="477" type="curve" smooth="yes"/>
      <point x="310" y="383"/>
      <point x="211" y="300"/>
      <point x="6" y="145" type="curve"/>
      <point x="-6" y="110"/>
      <point x="-10" y="56"/>
      <point x="-10" y="16" type="curve"/>
      <point x="103" y="-20"/>
      <point x="310" y="-46"/>
      <point x="459" y="-47" type="curve"/>
      <point x="478" y="-1"/>
      <point x="488" y="58"/>
      <point x="488" y="120" type="curve"/>
      <point x="406" y="112"/>
      <point x="323" y="114"/>
      <point x="217" y="114" type="curve"/>
      <point x="401" y="240"/>
      <point x="516" y="345"/>
    </contour>
  </outline>
</glyph>
<glyph name="seven" format="1">
  <advance width="539"/>
  <unicode hex="0037"/>
  <outline>
    <contour>
      <point x="185" y="-59" type="curve"/>
      <point x="264" y="103"/>
      <point x="382" y="315"/>
      <point x="501" y="437" type="curve"/>
      <point x="523" y="472"/>
      <point x="536" y="534"/>
      <point x="536" y="580" type="curve"/>
      <point x="374" y="595"/>
      <point x="210" y="626"/>
      <point x="46" y="664" type="curve"/>
      <point x="17" y="610"/>
      <point x="6" y="551"/>
      <point x="6" y="489" type="curve"/>
      <point x="115" y="477"/>
      <point x="222" y="470"/>
      <point x="317" y="470" type="curve"/>
      <point x="212" y="343"/>
      <point x="91" y="182"/>
      <point x="-10" y="-24" type="curve"/>
      <point x="35" y="-46"/>
      <point x="133" y="-64"/>
    </contour>
  </outline>
</glyph>
<glyph name="semicolon" format="1">
  <advance width="250"/>
  <unicode hex="003B"/>
  <outline>
    <contour>
      <point x="225" y="134" type="curve"/>
      <point x="175" y="144"/>
      <point x="108" y="148"/>
      <point x="44" y="148" type="curve"/>
      <point x="46" y="24"/>
      <point x="31" y="-96"/>
      <point x="1" y="-212" type="curve"/>
      <point x="41" y="-223"/>
      <point x="86" y="-229"/>
      <point x="138" y="-232" type="curve"/>
      <point x="191" y="-117"/>
      <point x="222" y="7"/>
    </contour>
    <contour>
      <point x="232" y="405"/>
      <point x="229" y="471"/>
      <point x="225" y="533" type="curve"/>
      <point x="203" y="544"/>
      <point x="166" y="553"/>
      <point x="125" y="553" type="curve" smooth="yes"/>
      <point x="94" y="553"/>
      <point x="65" y="551"/>
      <point x="31" y="544" type="curve"/>
      <point x="37" y="486"/>
      <point x="40" y="438"/>
      <point x="43" y="376" type="curve"/>
      <point x="105" y="374"/>
      <point x="163" y="371"/>
      <point x="233" y="370" type="curve"/>
    </contour>
  </outline>
</glyph>
<glyph name="P" format="1">
  <advance width="634"/>
  <unicode hex="0050"/>
  <outline>
    <contour>
      <point x="68" y="684" type="curve"/>
      <point x="64" y="635"/>
      <point x="61" y="586"/>
      <point x="61" y="538" type="curve" smooth="yes"/>
      <point x="61" y="340"/>
      <point x="75" y="142"/>
      <point x="98" y="-55" type="curve"/>
      <point x="149" y="-64"/>
      <point x="217" y="-68"/>
      <point x="270" y="-68" type="curve"/>
      <point x="266" y="27"/>
      <point x="261" y="123"/>
      <point x="261" y="221" type="curve" smooth="yes"/>
      <point x="261" y="376"/>
      <point x="268" y="529"/>
      <point x="283" y="675" type="curve"/>
      <point x="250" y="684"/>
      <point x="224" y="690"/>
      <point x="182" y="690" type="curve" smooth="yes"/>
      <point x="151" y="690"/>
      <point x="100" y="689"/>
    </contour>
    <contour>
      <point x="121" y="561" type="curve"/>
      <point x="163" y="588"/>
      <point x="232" y="629"/>
      <point x="300" y="629" type="curve" smooth="yes"/>
      <point x="376" y="629"/>
      <point x="390" y="564"/>
      <point x="390" y="511" type="curve" smooth="yes"/>
      <point x="390" y="405"/>
      <point x="336" y="347"/>
      <point x="231" y="332" type="curve"/>
      <point x="250" y="206" type="line"/>
      <point x="467" y="265"/>
      <point x="596" y="396"/>
      <point x="596" y="547" type="curve" smooth="yes"/>
      <point x="596" y="660"/>
      <point x="515" y="742"/>
      <point x="341" y="742" type="curve" smooth="yes"/>
      <point x="247" y="742"/>
      <point x="139" y="720"/>
      <point x="68" y="684" type="curve"/>
      <point x="74" y="643"/>
      <point x="94" y="603"/>
    </contour>
  </outline>
</glyph>
<glyph name="W" format="1">
  <advance width="926"/>
  <unicode hex="0057"/>
  <outline>
    <contour>
      <point x="688" y="-22" type="curve"/>
      <point x="806" y="165"/>
      <point x="903" y="422"/>
      <point x="948" y="644" type="curve"/>
      <point x="907" y="678"/>
      <point x="847" y="705"/>
      <point x="767" y="710" type="curve"/>
      <point x="749" y="539"/>
      <point x="708" y="361"/>
      <point x="637" y="169" type="curve"/>
      <point x="668" y="167" type="line"/>
      <point x="644" y="318"/>
      <point x="627" y="450"/>
      <point x="606" y="595" type="curve"/>
      <point x="543" y="597"/>
      <point x="455" y="586"/>
      <point x="389" y="571" type="curve"/>
      <point x="364" y="429"/>
      <point x="335" y="279"/>
      <point x="281" y="110" type="curve"/>
      <point x="317" y="110" type="line"/>
      <point x="270" y="313"/>
      <point x="235" y="502"/>
      <point x="219" y="673" type="curve"/>
      <point x="141" y="670"/>
      <point x="67" y="658"/>
      <point x="-5" y="636" type="curve"/>
      <point x="40" y="379"/>
      <point x="103" y="151"/>
      <point x="188" y="-81" type="curve"/>
      <point x="244" y="-80"/>
      <point x="305" y="-71"/>
      <point x="352" y="-57" type="curve"/>
      <point x="405" y="79"/>
      <point x="441" y="216"/>
      <point x="473" y="367" type="curve"/>
      <point x="484" y="234"/>
      <point x="519" y="102"/>
      <point x="547" y="-37" type="curve"/>
      <point x="601" y="-34"/>
      <point x="648" y="-29"/>
    </contour>
  </outline>
</glyph>
<glyph name="g" format="1">
  <advance width="577"/>
  <unicode hex="0067"/>
  <outline>
    <contour>
      <point x="337" y="417" type="curve"/>
      <point x="496" y="515" type="line"/>
      <point x="442" y="530"/>
      <point x="371" y="541"/>
      <point x="321" y="541" type="curve" smooth="yes"/>
      <point x="124" y="541"/>
      <point x="30" y="433"/>
      <point x="30" y="243" type="curve" smooth="yes"/>
      <point x="30" y="103"/>
      <point x="111" y="4"/>
      <point x="241" y="4" type="curve" smooth="yes"/>
      <point x="325" y="4"/>
      <point x="370" y="74"/>
      <point x="401" y="172" type="curve"/>
      <point x="357" y="202" type="line"/>
      <point x="349" y="157"/>
      <point x="327" y="125"/>
      <point x="306" y="125" type="curve" smooth="yes"/>
      <point x="268" y="125"/>
      <point x="225" y="172"/>
      <point x="225" y="285" type="curve" smooth="yes"/>
      <point x="225" y="376"/>
      <point x="244" y="424"/>
      <point x="289" y="424" type="curve" smooth="yes"/>
      <point x="306" y="424"/>
      <point x="324" y="421"/>
    </contour>
    <contour>
      <point x="424" y="515"/>
      <point x="342" y="506"/>
      <point x="292" y="488" type="curve"/>
      <point x="307" y="438"/>
      <point x="333" y="273"/>
      <point x="333" y="150" type="curve" smooth="yes"/>
      <point x="333" y="-10"/>
      <point x="324" y="-135"/>
      <point x="267" y="-135" type="curve" smooth="yes"/>
      <point x="238" y="-135"/>
      <point x="225" y="-98"/>
      <point x="214" y="-24" type="curve"/>
      <point x="157" y="-31"/>
      <point x="95" y="-53"/>
      <point x="51" y="-87" type="curve"/>
      <point x="51" y="-128"/>
      <point x="79" y="-247"/>
      <point x="250" y="-247" type="curve" smooth="yes"/>
      <point x="398" y="-247"/>
      <point x="533" y="-147"/>
      <point x="533" y="169" type="curve" smooth="yes"/>
      <point x="533" y="298"/>
      <point x="513" y="457"/>
      <point x="496" y="515" type="curve"/>
    </contour>
    <contour>
      <point x="302" y="560" type="move" name="top"/>
    </contour>
  </outline>
</glyph>
<glyph name="i" format="1">
  <advance width="331"/>
  <unicode hex="0069"/>
  <outline>
    <contour>
      <point x="159" y="531"/>
      <point x="122" y="520"/>
      <point x="93" y="505" type="curve"/>
      <point x="71" y="410"/>
      <point x="55" y="228"/>
      <point x="55" y="84" type="curve" smooth="yes"/>
      <point x="55" y="51"/>
      <point x="55" y="19"/>
      <point x="58" y="-7" type="curve"/>
      <point x="75" y="-12"/>
      <point x="90" y="-14"/>
      <point x="118" y="-14" type="curve" smooth="yes"/>
      <point x="166" y="-14"/>
      <point x="201" y="-6"/>
      <point x="225" y="5" type="curve"/>
      <point x="245" y="244"/>
      <point x="281" y="439"/>
      <point x="312" y="519" type="curve"/>
      <point x="283" y="526"/>
      <point x="249" y="531"/>
      <point x="222" y="531" type="curve" smooth="yes"/>
    </contour>
    <contour>
      <point x="319" y="644"/>
      <point x="336" y="708"/>
      <point x="348" y="737" type="curve"/>
      <point x="328" y="747"/>
      <point x="293" y="756"/>
      <point x="248" y="756" type="curve" smooth="yes"/>
      <point x="202" y="756"/>
      <point x="164" y="748"/>
      <point x="133" y="731" type="curve"/>
      <point x="128" y="715"/>
      <point x="127" y="697"/>
      <point x="127" y="681" type="curve" smooth="yes"/>
      <point x="127" y="649"/>
      <point x="133" y="619"/>
      <point x="141" y="594" type="curve"/>
      <point x="219" y="593"/>
      <point x="271" y="597"/>
      <point x="312" y="604" type="curve"/>
    </contour>
  </outline>
</glyph>
<glyph name="p" format="1">
  <advance width="569"/>
  <unicode hex="0070"/>
  <outline>
    <contour>
      <point x="204" y="156" type="curve"/>
      <point x="79" y="64" type="line"/>
      <point x="120" y="42"/>
      <point x="176" y="10"/>
      <point x="274" y="10" type="curve" smooth="yes"/>
      <point x="424" y="10"/>
      <point x="549" y="148"/>
      <point x="549" y="379" type="curve" smooth="yes"/>
      <point x="549" y="498"/>
      <point x="495" y="573"/>
      <point x="401" y="573" type="curve" smooth="yes"/>
      <point x="294" y="573"/>
      <point x="230" y="471"/>
      <point x="195" y="357" type="curve"/>
      <point x="240" y="323" type="line"/>
      <point x="256" y="404"/>
      <point x="284" y="431"/>
      <point x="312" y="431" type="curve" smooth="yes"/>
      <point x="339" y="431"/>
      <point x="350" y="406"/>
      <point x="350" y="358" type="curve" smooth="yes"/>
      <point x="350" y="211"/>
      <point x="313" y="118"/>
      <point x="272" y="118" type="curve" smooth="yes"/>
      <point x="245" y="118"/>
      <point x="222" y="137"/>
    </contour>
    <contour>
      <point x="95" y="-233" type="curve"/>
      <point x="150" y="-233"/>
      <point x="223" y="-224"/>
      <point x="260" y="-213" type="curve"/>
      <point x="249" y="-103"/>
      <point x="241" y="-7"/>
      <point x="241" y="99" type="curve" smooth="yes"/>
      <point x="241" y="256"/>
      <point x="249" y="467"/>
      <point x="277" y="570" type="curve"/>
      <point x="251" y="576"/>
      <point x="235" y="578"/>
      <point x="213" y="578" type="curve" smooth="yes"/>
      <point x="158" y="578"/>
      <point x="98" y="568"/>
      <point x="67" y="552" type="curve"/>
      <point x="61" y="494"/>
      <point x="58" y="436"/>
      <point x="58" y="353" type="curve" smooth="yes"/>
      <point x="58" y="142"/>
      <point x="77" y="-102"/>
    </contour>
  </outline>
</glyph>
<glyph name="bn_anusvar" format="1">
  <advance width="459"/>
  <unicode hex="0982"/>
  <outline>
    <contour>
      <point x="392" y="-43"/>
      <point x="427" y="-7"/>
      <point x="444" y="28" type="curve"/>
      <point x="379" y="150"/>
      <point x="217" y="278"/>
      <point x="77" y="327" type="curve"/>
      <point x="43" y="289"/>
      <point x="17" y="241"/>
      <point x="-1" y="183" type="curve"/>
      <point x="125" y="153"/>
      <point x="275" y="64"/>
      <point x="350" y="-63" type="curve"/>
    </contour>
    <contour>
      <point x="311" y="320"/>
      <point x="391" y="397"/>
      <point x="393" y="493" type="curve" smooth="yes"/>
      <point x="395" y="582"/>
      <point x="328" y="648"/>
      <point x="237" y="648" type="curve" smooth="yes"/>
      <point x="138" y="648"/>
      <point x="60" y="571"/>
      <point x="58" y="472" type="curve" smooth="yes"/>
      <point x="56" y="386"/>
      <point x="124" y="320"/>
      <point x="213" y="320" type="curve" smooth="yes"/>
    </contour>
    <contour>
      <point x="203" y="423"/>
      <point x="161" y="460"/>
      <point x="161" y="505" type="curve" smooth="yes"/>
      <point x="161" y="530"/>
      <point x="179" y="546"/>
      <point x="206" y="546" type="curve" smooth="yes"/>
      <point x="249" y="546"/>
      <point x="290" y="508"/>
      <point x="290" y="461" type="curve" smooth="yes"/>
      <point x="290" y="438"/>
      <point x="272" y="423"/>
      <point x="246" y="423" type="curve" smooth="yes"/>
    </contour>
  </outline>
</glyph>
<glyph name="bn_o" format="1">
  <advance width="752"/>
  <unicode hex="0993"/>
  <outline>
    <contour>
      <point x="642" y="-42"/>
      <point x="714" y="49"/>
      <point x="714" y="153" type="curve" smooth="yes"/>
      <point x="714" y="231"/>
      <point x="674" y="304"/>
      <point x="610" y="345" type="curve"/>
      <point x="546" y="271" type="line"/>
      <point x="574" y="258"/>
      <point x="594" y="232"/>
      <point x="594" y="198" type="curve" smooth="yes"/>
      <point x="594" y="154"/>
      <point x="560" y="129"/>
      <point x="506" y="129" type="curve" smooth="yes"/>
      <point x="339" y="129"/>
      <point x="193" y="363"/>
      <point x="124" y="601" type="curve"/>
      <point x="85" y="591"/>
      <point x="49" y="575"/>
      <point x="16" y="554" type="curve"/>
      <point x="84" y="302"/>
      <point x="211" y="-42"/>
      <point x="496" y="-42" type="curve" smooth="yes"/>
    </contour>
    <contour>
      <point x="561" y="202"/>
      <point x="604" y="251"/>
      <point x="618" y="323" type="curve"/>
      <point x="538" y="373" type="line"/>
      <point x="525" y="345"/>
      <point x="505" y="320"/>
      <point x="481" y="320" type="curve" smooth="yes"/>
      <point x="465" y="320"/>
      <point x="456" y="331"/>
      <point x="456" y="345" type="curve" smooth="yes"/>
      <point x="456" y="362"/>
      <point x="468" y="376"/>
      <point x="485" y="376" type="curve" smooth="yes"/>
      <point x="507" y="376"/>
      <point x="528" y="350"/>
      <point x="541" y="302" type="curve"/>
      <point x="575" y="393" type="line"/>
      <point x="565" y="418"/>
      <point x="530" y="441"/>
      <point x="493" y="441" type="curve" smooth="yes"/>
      <point x="439" y="441"/>
      <point x="387" y="393"/>
      <point x="387" y="321" type="curve" smooth="yes"/>
      <point x="387" y="248"/>
      <point x="439" y="202"/>
      <point x="499" y="202" type="curve" smooth="yes"/>
    </contour>
    <contour>
      <point x="669" y="317"/>
      <point x="703" y="390"/>
      <point x="703" y="464" type="curve" smooth="yes"/>
      <point x="703" y="591"/>
      <point x="601" y="678"/>
      <point x="470" y="678" type="curve" smooth="yes"/>
      <point x="326" y="678"/>
      <point x="209" y="572"/>
      <point x="212" y="443" type="curve"/>
      <point x="250" y="406"/>
      <point x="320" y="384"/>
      <point x="376" y="384" type="curve"/>
      <point x="374" y="396"/>
      <point x="374" y="409"/>
      <point x="374" y="424" type="curve" smooth="yes"/>
      <point x="374" y="493"/>
      <point x="442" y="561"/>
      <point x="523" y="556" type="curve" smooth="yes"/>
      <point x="566" y="553"/>
      <point x="590" y="531"/>
      <point x="590" y="495" type="curve" smooth="yes"/>
      <point x="590" y="460"/>
      <point x="567" y="418"/>
      <point x="521" y="392" type="curve"/>
      <point x="547" y="345" type="line"/>
      <point x="608" y="281" type="line"/>
    </contour>
  </outline>
</glyph>
<glyph name="bn_au" format="1">
  <advance width="812"/>
  <unicode hex="0994"/>
  <outline>
    <contour>
      <point x="732" y="419"/>
      <point x="792" y="518"/>
      <point x="792" y="628" type="curve" smooth="yes"/>
      <point x="792" y="738"/>
      <point x="733" y="810"/>
      <point x="607" y="828" type="curve" smooth="yes"/>
      <point x="524" y="840" type="line" smooth="yes"/>
      <point x="448" y="851"/>
      <point x="416" y="867"/>
      <point x="400" y="967" type="curve"/>
      <point x="372" y="957"/>
      <point x="331" y="941"/>
      <point x="294" y="912" type="curve"/>
      <point x="316" y="766"/>
      <point x="386" y="734"/>
      <point x="531" y="715" type="curve" smooth="yes"/>
      <point x="653" y="699"/>
      <point x="718" y="690"/>
      <point x="718" y="629" type="curve" smooth="yes"/>
      <point x="718" y="589"/>
      <point x="690" y="545"/>
      <point x="651" y="516" type="curve"/>
      <point x="629" y="323" type="line"/>
    </contour>
    <component base="bn_o"/>
  </outline>
</glyph>
<glyph name="bn_kha" format="1">
  <advance width="803"/>
  <unicode hex="0996"/>
  <outline>
    <contour>
      <point x="533" y="-7" type="line"/>
      <point x="500" y="111"/>
      <point x="415" y="203"/>
      <point x="276" y="257" type="curve"/>
      <point x="279" y="162" type="line"/>
      <point x="360" y="196" type="line" smooth="yes"/>
      <point x="473" y="244"/>
      <point x="517" y="332"/>
      <point x="517" y="418" type="curve" smooth="yes"/>
      <point x="517" y="479"/>
      <point x="501" y="526"/>
      <point x="475" y="561" type="curve"/>
      <point x="396" y="611" type="line"/>
      <point x="367" y="583"/>
      <point x="310" y="542"/>
      <point x="254" y="542" type="curve" smooth="yes"/>
      <point x="209" y="542"/>
      <point x="191" y="569"/>
      <point x="191" y="600" type="curve" smooth="yes"/>
      <point x="191" y="611"/>
      <point x="193" y="623"/>
      <point x="203" y="635" type="curve"/>
      <point x="150" y="635"/>
      <point x="96" y="625"/>
      <point x="57" y="600" type="curve"/>
      <point x="50" y="588"/>
      <point x="47" y="577"/>
      <point x="47" y="560" type="curve" smooth="yes"/>
      <point x="47" y="460"/>
      <point x="108" y="395"/>
      <point x="213" y="395" type="curve" smooth="yes"/>
      <point x="299" y="395"/>
      <point x="384" y="455"/>
      <point x="425" y="511" type="curve"/>
      <point x="370" y="528" type="line"/>
      <point x="389" y="522"/>
      <point x="401" y="503"/>
      <point x="401" y="485" type="curve" smooth="yes"/>
      <point x="401" y="435"/>
      <point x="367" y="391"/>
      <point x="263" y="345" type="curve" smooth="yes"/>
      <point x="150" y="296" type="line"/>
      <point x="156" y="239"/>
      <point x="177" y="189"/>
      <point x="212" y="136" type="curve"/>
      <point x="330" y="115"/>
      <point x="412" y="49"/>
      <point x="481" y="-74" type="curve"/>
    </contour>
    <contour>
      <point x="704" y="28"/>
      <point x="725" y="257"/>
      <point x="725" y="439" type="curve" smooth="yes"/>
      <point x="725" y="468"/>
      <point x="732" y="483"/>
      <point x="756" y="492" type="curve" smooth="yes"/>
      <point x="768" y="497"/>
      <point x="785" y="500"/>
      <point x="803" y="504" type="curve"/>
      <point x="809" y="523"/>
      <point x="814" y="555"/>
      <point x="814" y="579" type="curve" smooth="yes"/>
      <point x="814" y="606"/>
      <point x="810" y="626"/>
      <point x="803" y="639" type="curve"/>
      <point x="746" y="630"/>
      <point x="697" y="620"/>
      <point x="649" y="602" type="curve" smooth="yes"/>
      <point x="599" y="584"/>
      <point x="569" y="548"/>
      <point x="569" y="497" type="curve" smooth="yes"/>
      <point x="569" y="471"/>
      <point x="574" y="450"/>
      <point x="574" y="369" type="curve" smooth="yes"/>
      <point x="574" y="234"/>
      <point x="558" y="110"/>
      <point x="516" y="12" type="curve"/>
      <point x="481" y="-74" type="line"/>
      <point x="518" y="-87"/>
      <point x="588" y="-98"/>
      <point x="643" y="-98" type="curve"/>
    </contour>
  </outline>
</glyph>
<glyph name="bn_nga" format="1">
  <advance width="647"/>
  <unicode hex="0999"/>
  <outline>
    <contour>
      <point x="555" y="-57"/>
      <point x="642" y="31"/>
      <point x="642" y="169" type="curve" smooth="yes"/>
      <point x="642" y="249"/>
      <point x="613" y="341"/>
      <point x="565" y="403" type="curve"/>
      <point x="527" y="413"/>
      <point x="482" y="422"/>
      <point x="446" y="423" type="curve"/>
      <point x="424" y="366"/>
      <point x="405" y="314"/>
      <point x="386" y="314" type="curve" smooth="yes"/>
      <point x="361" y="314"/>
      <point x="356" y="430"/>
      <point x="356" y="481" type="curve" smooth="yes"/>
      <point x="356" y="545"/>
      <point x="368" y="628"/>
      <point x="423" y="628" type="curve" smooth="yes"/>
      <point x="442" y="628"/>
      <point x="458" y="614"/>
      <point x="458" y="592" type="curve" smooth="yes"/>
      <point x="458" y="557"/>
      <point x="411" y="545"/>
      <point x="361" y="545" type="curve" smooth="yes"/>
      <point x="270" y="545"/>
      <point x="155" y="587"/>
      <point x="100" y="636" type="curve"/>
      <point x="79" y="594"/>
      <point x="68" y="547"/>
      <point x="65" y="498" type="curve"/>
      <point x="116" y="463"/>
      <point x="227" y="436"/>
      <point x="325" y="436" type="curve" smooth="yes"/>
      <point x="436" y="436"/>
      <point x="536" y="478"/>
      <point x="536" y="578" type="curve" smooth="yes"/>
      <point x="536" y="639"/>
      <point x="500" y="703"/>
      <point x="415" y="703" type="curve" smooth="yes"/>
      <point x="290" y="703"/>
      <point x="222" y="608"/>
      <point x="222" y="472" type="curve" smooth="yes"/>
      <point x="222" y="339"/>
      <point x="279" y="194"/>
      <point x="403" y="194" type="curve" smooth="yes"/>
      <point x="494" y="194"/>
      <point x="519" y="248"/>
      <point x="571" y="319" type="curve"/>
      <point x="505" y="353" type="line"/>
      <point x="519" y="317"/>
      <point x="535" y="266"/>
      <point x="535" y="227" type="curve" smooth="yes"/>
      <point x="535" y="153"/>
      <point x="490" y="113"/>
      <point x="417" y="113" type="curve" smooth="yes"/>
      <point x="302" y="113"/>
      <point x="197" y="238"/>
      <point x="114" y="400" type="curve"/>
      <point x="80" y="384"/>
      <point x="46" y="364"/>
      <point x="15" y="341" type="curve"/>
      <point x="95" y="165"/>
      <point x="222" y="-57"/>
      <point x="418" y="-57" type="curve" smooth="yes"/>
    </contour>
  </outline>
</glyph>
<glyph name="bn_ja" format="1">
  <advance width="928"/>
  <unicode hex="099C"/>
  <outline>
    <contour>
      <point x="578" y="-39"/>
      <point x="661" y="59"/>
      <point x="661" y="202" type="curve" smooth="yes"/>
      <point x="661" y="244"/>
      <point x="653" y="285"/>
      <point x="638" y="320" type="curve"/>
      <point x="602" y="348"/>
      <point x="553" y="378"/>
      <point x="513" y="397" type="curve"/>
      <point x="474" y="359"/>
      <point x="421" y="325"/>
      <point x="388" y="325" type="curve" smooth="yes"/>
      <point x="372" y="325"/>
      <point x="354" y="330"/>
      <point x="354" y="346" type="curve" smooth="yes"/>
      <point x="354" y="379"/>
      <point x="406" y="491"/>
      <point x="468" y="557" type="curve"/>
      <point x="306" y="559" type="line"/>
      <point x="279" y="519"/>
      <point x="243" y="448"/>
      <point x="243" y="388" type="curve" smooth="yes"/>
      <point x="243" y="271"/>
      <point x="339" y="197"/>
      <point x="430" y="197" type="curve" smooth="yes"/>
      <point x="493" y="197"/>
      <point x="544" y="225"/>
      <point x="593" y="249" type="curve"/>
      <point x="549" y="333" type="line"/>
      <point x="557" y="304"/>
      <point x="562" y="279"/>
      <point x="562" y="248" type="curve" smooth="yes"/>
      <point x="562" y="180"/>
      <point x="528" y="118"/>
      <point x="435" y="118" type="curve" smooth="yes"/>
      <point x="294" y="118"/>
      <point x="188" y="261"/>
      <point x="118" y="456" type="curve"/>
      <point x="81" y="445"/>
      <point x="46" y="431"/>
      <point x="13" y="414" type="curve"/>
      <point x="70" y="218"/>
      <point x="176" y="-39"/>
      <point x="425" y="-39" type="curve" smooth="yes"/>
    </contour>
    <contour>
      <point x="775" y="-83"/>
      <point x="847" y="-74"/>
      <point x="876" y="-63" type="curve"/>
      <point x="855" y="13"/>
      <point x="845" y="83"/>
      <point x="845" y="151" type="curve" smooth="yes"/>
      <point x="845" y="232"/>
      <point x="859" y="306"/>
      <point x="887" y="375" type="curve"/>
      <point x="867" y="431"/>
      <point x="832" y="473"/>
      <point x="795" y="496" type="curve"/>
      <point x="769" y="488"/>
      <point x="740" y="479"/>
      <point x="699" y="479" type="curve" smooth="yes"/>
      <point x="618" y="479"/>
      <point x="562" y="509"/>
      <point x="529" y="558" type="curve"/>
      <point x="439" y="544" type="line"/>
      <point x="482" y="424"/>
      <point x="605" y="343"/>
      <point x="748" y="343" type="curve" smooth="yes"/>
      <point x="812" y="343"/>
      <point x="837" y="364"/>
      <point x="852" y="384" type="curve"/>
      <point x="776" y="377" type="line"/>
      <point x="737" y="307"/>
      <point x="716" y="199"/>
      <point x="716" y="112" type="curve" smooth="yes"/>
      <point x="716" y="42"/>
      <point x="724" y="-25"/>
      <point x="740" y="-83" type="curve"/>
    </contour>
    <contour>
      <point x="109" y="525"/>
      <point x="275" y="538"/>
      <point x="458" y="538" type="curve" smooth="yes"/>
      <point x="641" y="538"/>
      <point x="817" y="522"/>
      <point x="928" y="504" type="curve"/>
      <point x="934" y="521"/>
      <point x="939" y="549"/>
      <point x="939" y="577" type="curve" smooth="yes"/>
      <point x="939" y="601"/>
      <point x="936" y="624"/>
      <point x="928" y="639" type="curve"/>
      <point x="830" y="660"/>
      <point x="648" y="677"/>
      <point x="463" y="677" type="curve" smooth="yes"/>
      <point x="278" y="677"/>
      <point x="107" y="660"/>
      <point x="0" y="639" type="curve"/>
      <point x="-8" y="627"/>
      <point x="-12" y="604"/>
      <point x="-12" y="581" type="curve" smooth="yes"/>
      <point x="-12" y="552"/>
      <point x="-7" y="520"/>
      <point x="0" y="504" type="curve"/>
    </contour>
  </outline>
</glyph>
<glyph name="bn_nya" format="1">
  <advance width="907"/>
  <unicode hex="099E"/>
  <outline>
    <contour>
      <point x="503" y="-53"/>
      <point x="522" y="-51"/>
      <point x="539" y="-49" type="curve"/>
      <point x="576" y="76"/>
      <point x="657" y="405"/>
      <point x="657" y="484" type="curve" smooth="yes"/>
      <point x="657" y="590"/>
      <point x="576" y="671"/>
      <point x="471" y="671" type="curve" smooth="yes"/>
      <point x="343" y="671"/>
      <point x="211" y="549"/>
      <point x="211" y="423" type="curve" smooth="yes"/>
      <point x="211" y="337"/>
      <point x="285" y="275"/>
      <point x="369" y="275" type="curve" smooth="yes"/>
      <point x="381" y="275"/>
      <point x="391" y="277"/>
      <point x="399" y="279" type="curve"/>
      <point x="427" y="304"/>
      <point x="454" y="358"/>
      <point x="462" y="402" type="curve" smooth="yes"/>
      <point x="464" y="412"/>
      <point x="464" y="420"/>
      <point x="464" y="423" type="curve"/>
      <point x="454" y="418"/>
      <point x="441" y="415"/>
      <point x="428" y="415" type="curve" smooth="yes"/>
      <point x="402" y="415"/>
      <point x="386" y="425"/>
      <point x="386" y="446" type="curve" smooth="yes"/>
      <point x="386" y="486"/>
      <point x="449" y="564"/>
      <point x="493" y="564" type="curve" smooth="yes"/>
      <point x="509" y="564"/>
      <point x="519" y="555"/>
      <point x="519" y="536" type="curve" smooth="yes"/>
      <point x="519" y="462"/>
      <point x="434" y="160"/>
      <point x="392" y="61" type="curve"/>
      <point x="419" y="2" type="line"/>
      <point x="415" y="163"/>
      <point x="392" y="224"/>
      <point x="310" y="224" type="curve" smooth="yes"/>
      <point x="274" y="224"/>
      <point x="232" y="213"/>
      <point x="201" y="213" type="curve" smooth="yes"/>
      <point x="174" y="213"/>
      <point x="151" y="225"/>
      <point x="151" y="255" type="curve" smooth="yes"/>
      <point x="151" y="272"/>
      <point x="162" y="308"/>
      <point x="183" y="339" type="curve"/>
      <point x="158" y="353"/>
      <point x="123" y="366"/>
      <point x="76" y="375" type="curve"/>
      <point x="40" y="319"/>
      <point x="11" y="244"/>
      <point x="11" y="182" type="curve" smooth="yes"/>
      <point x="11" y="93"/>
      <point x="66" y="39"/>
      <point x="163" y="39" type="curve" smooth="yes"/>
      <point x="211" y="39"/>
      <point x="258" y="51"/>
      <point x="300" y="51" type="curve" smooth="yes"/>
      <point x="384" y="51"/>
      <point x="387" y="0"/>
      <point x="402" y="-46" type="curve"/>
      <point x="428" y="-50"/>
      <point x="456" y="-53"/>
      <point x="484" y="-53" type="curve" smooth="yes"/>
    </contour>
    <contour>
      <point x="825" y="15"/>
      <point x="876" y="71"/>
      <point x="876" y="149" type="curve" smooth="yes"/>
      <point x="876" y="197"/>
      <point x="854" y="243"/>
      <point x="820" y="285" type="curve"/>
      <point x="773" y="243" type="line"/>
      <point x="785" y="232"/>
      <point x="795" y="210"/>
      <point x="795" y="192" type="curve" smooth="yes"/>
      <point x="795" y="164"/>
      <point x="774" y="146"/>
      <point x="744" y="146" type="curve" smooth="yes"/>
      <point x="689" y="146"/>
      <point x="622" y="197"/>
      <point x="591" y="261" type="curve"/>
      <point x="563" y="159" type="line"/>
      <point x="583" y="93"/>
      <point x="649" y="15"/>
      <point x="747" y="15" type="curve" smooth="yes"/>
    </contour>
    <contour>
      <point x="776" y="180"/>
      <point x="807" y="201"/>
      <point x="828" y="237" type="curve"/>
      <point x="787" y="288" type="line"/>
      <point x="774" y="275"/>
      <point x="759" y="265"/>
      <point x="744" y="265" type="curve" smooth="yes"/>
      <point x="730" y="265"/>
      <point x="722" y="275"/>
      <point x="722" y="285" type="curve" smooth="yes"/>
      <point x="722" y="297"/>
      <point x="732" y="308"/>
      <point x="743" y="308" type="curve" smooth="yes"/>
      <point x="761" y="308"/>
      <point x="773" y="291"/>
      <point x="777" y="263" type="curve"/>
      <point x="816" y="309" type="line"/>
      <point x="808" y="332"/>
      <point x="778" y="356"/>
      <point x="747" y="356" type="curve" smooth="yes"/>
      <point x="702" y="356"/>
      <point x="662" y="314"/>
      <point x="662" y="262" type="curve" smooth="yes"/>
      <point x="662" y="215"/>
      <point x="698" y="180"/>
      <point x="744" y="180" type="curve" smooth="yes"/>
    </contour>
    <contour>
      <point x="865" y="240"/>
      <point x="916" y="304"/>
      <point x="916" y="381" type="curve" smooth="yes"/>
      <point x="916" y="458"/>
      <point x="854" y="508"/>
      <point x="775" y="508" type="curve" smooth="yes"/>
      <point x="707" y="508"/>
      <point x="644" y="468"/>
      <point x="608" y="418" type="curve"/>
      <point x="592" y="268" type="line"/>
      <point x="647" y="350"/>
      <point x="713" y="389"/>
      <point x="766" y="389" type="curve" smooth="yes"/>
      <point x="800" y="389"/>
      <point x="822" y="375"/>
      <point x="822" y="354" type="curve" smooth="yes"/>
      <point x="822" y="324"/>
      <point x="791" y="289"/>
      <point x="755" y="258" type="curve"/>
      <point x="798" y="195" type="line"/>
    </contour>
  </outline>
</glyph>
<glyph name="bn_dda" format="1">
  <advance width="627"/>
  <unicode hex="09A1"/>
  <note>
	uni09A1
  </note>
  <outline>
    <contour>
      <point x="530" y="-39"/>
      <point x="605" y="67"/>
      <point x="605" y="218" type="curve" smooth="yes"/>
      <point x="605" y="286"/>
      <point x="590" y="352"/>
      <point x="566" y="402" type="curve"/>
      <point x="528" y="420"/>
      <point x="481" y="436"/>
      <point x="442" y="445" type="curve"/>
      <point x="413" y="385"/>
      <point x="384" y="331"/>
      <point x="362" y="331" type="curve" smooth="yes"/>
      <point x="354" y="331"/>
      <point x="345" y="337"/>
      <point x="345" y="353" type="curve" smooth="yes"/>
      <point x="345" y="383"/>
      <point x="376" y="500"/>
      <point x="407" y="577" type="curve"/>
      <point x="251" y="613" type="line"/>
      <point x="235" y="546"/>
      <point x="222" y="463"/>
      <point x="222" y="419" type="curve" smooth="yes"/>
      <point x="222" y="322"/>
      <point x="286" y="198"/>
      <point x="399" y="198" type="curve" smooth="yes"/>
      <point x="474" y="198"/>
      <point x="512" y="249"/>
      <point x="541" y="305" type="curve"/>
      <point x="496" y="349" type="line"/>
      <point x="502" y="320"/>
      <point x="507" y="286"/>
      <point x="507" y="255" type="curve" smooth="yes"/>
      <point x="507" y="177"/>
      <point x="476" y="124"/>
      <point x="398" y="124" type="curve" smooth="yes"/>
      <point x="268" y="124"/>
      <point x="176" y="270"/>
      <point x="116" y="460" type="curve"/>
      <point x="79" y="448"/>
      <point x="44" y="433"/>
      <point x="10" y="414" type="curve"/>
      <point x="59" y="224"/>
      <point x="158" y="-39"/>
      <point x="386" y="-39" type="curve" smooth="yes"/>
    </contour>
    <contour>
      <point x="80" y="521"/>
      <point x="184" y="535"/>
      <point x="315" y="535" type="curve" smooth="yes"/>
      <point x="442" y="535"/>
      <point x="547" y="522"/>
      <point x="627" y="504" type="curve"/>
      <point x="634" y="525"/>
      <point x="638" y="558"/>
      <point x="638" y="584" type="curve" smooth="yes"/>
      <point x="638" y="606"/>
      <point x="635" y="626"/>
      <point x="627" y="639" type="curve"/>
      <point x="550" y="658"/>
      <point x="445" y="674"/>
      <point x="314" y="674" type="curve" smooth="yes"/>
      <point x="183" y="674"/>
      <point x="78" y="658"/>
      <point x="0" y="639" type="curve"/>
      <point x="-8" y="626"/>
      <point x="-11" y="604"/>
      <point x="-11" y="581" type="curve" smooth="yes"/>
      <point x="-11" y="553"/>
      <point x="-6" y="521"/>
      <point x="0" y="504" type="curve"/>
    </contour>
  </outline>
</glyph>
<glyph name="bn_ta" format="1">
  <advance width="956"/>
  <unicode hex="09A4"/>
  <outline>
    <contour>
      <point x="816" y="-147"/>
      <point x="924" y="-36"/>
      <point x="924" y="126" type="curve" smooth="yes"/>
      <point x="924" y="326"/>
      <point x="768" y="487"/>
      <point x="596" y="487" type="curve" smooth="yes"/>
      <point x="475" y="487"/>
      <point x="397" y="405"/>
      <point x="397" y="301" type="curve" smooth="yes"/>
      <point x="397" y="265"/>
      <point x="417" y="227"/>
      <point x="447" y="194" type="curve"/>
      <point x="465" y="181"/>
      <point x="507" y="173"/>
      <point x="537" y="173" type="curve" smooth="yes"/>
      <point x="580" y="173"/>
      <point x="611" y="180"/>
      <point x="635" y="191" type="curve"/>
      <point x="592" y="226"/>
      <point x="571" y="256"/>
      <point x="571" y="283" type="curve" smooth="yes"/>
      <point x="571" y="322"/>
      <point x="596" y="349"/>
      <point x="649" y="349" type="curve" smooth="yes"/>
      <point x="723" y="349"/>
      <point x="796" y="293"/>
      <point x="796" y="184" type="curve" smooth="yes"/>
      <point x="796" y="86"/>
      <point x="731" y="32"/>
      <point x="608" y="32" type="curve" smooth="yes"/>
      <point x="405" y="32"/>
      <point x="236" y="242"/>
      <point x="140" y="439" type="curve"/>
      <point x="100" y="425"/>
      <point x="61" y="409"/>
      <point x="26" y="389" type="curve"/>
      <point x="111" y="166"/>
      <point x="274" y="-147"/>
      <point x="618" y="-147" type="curve" smooth="yes"/>
    </contour>
    <contour>
      <point x="120" y="520"/>
      <point x="279" y="536"/>
      <point x="478" y="536" type="curve" smooth="yes"/>
      <point x="668" y="536"/>
      <point x="836" y="520"/>
      <point x="956" y="504" type="curve"/>
      <point x="963" y="521"/>
      <point x="969" y="550"/>
      <point x="969" y="579" type="curve" smooth="yes"/>
      <point x="969" y="602"/>
      <point x="965" y="626"/>
      <point x="956" y="639" type="curve"/>
      <point x="838" y="660"/>
      <point x="670" y="677"/>
      <point x="478" y="677" type="curve" smooth="yes"/>
      <point x="277" y="677"/>
      <point x="117" y="660"/>
      <point x="0" y="639" type="curve"/>
      <point x="-8" y="626"/>
      <point x="-13" y="604"/>
      <point x="-13" y="580" type="curve" smooth="yes"/>
      <point x="-13" y="549"/>
      <point x="-8" y="521"/>
      <point x="0" y="504" type="curve"/>
    </contour>
  </outline>
</glyph>
<glyph name="bn_na" format="1">
  <advance width="559"/>
  <unicode hex="09A8"/>
  <outline>
    <contour>
      <point x="211" y="115"/>
      <point x="231" y="183"/>
      <point x="239" y="237" type="curve"/>
      <point x="218" y="227"/>
      <point x="192" y="223"/>
      <point x="172" y="223" type="curve" smooth="yes"/>
      <point x="130" y="223"/>
      <point x="104" y="244"/>
      <point x="104" y="270" type="curve" smooth="yes"/>
      <point x="104" y="297"/>
      <point x="126" y="316"/>
      <point x="164" y="316" type="curve" smooth="yes"/>
      <point x="243" y="316"/>
      <point x="310" y="198"/>
      <point x="297" y="80" type="curve"/>
      <point x="351" y="191" type="line"/>
      <point x="353" y="360"/>
      <point x="290" y="469"/>
      <point x="190" y="469" type="curve" smooth="yes"/>
      <point x="92" y="469"/>
      <point x="15" y="377"/>
      <point x="15" y="244" type="curve" smooth="yes"/>
      <point x="15" y="134"/>
      <point x="71" y="66"/>
      <point x="154" y="66" type="curve" smooth="yes"/>
      <point x="172" y="66"/>
      <point x="186" y="69"/>
      <point x="191" y="72" type="curve"/>
    </contour>
    <contour>
      <point x="349" y="-58"/>
      <point x="415" y="-53"/>
      <point x="453" y="-45" type="curve"/>
      <point x="449" y="-30"/>
      <point x="449" y="34"/>
      <point x="449" y="66" type="curve" smooth="yes"/>
      <point x="449" y="231"/>
      <point x="483" y="427"/>
      <point x="516" y="530" type="curve"/>
      <point x="397" y="560" type="line"/>
      <point x="356" y="448"/>
      <point x="327" y="310"/>
      <point x="297" y="80" type="curve" smooth="yes"/>
      <point x="290" y="7"/>
      <point x="288" y="-29"/>
      <point x="288" y="-58" type="curve"/>
    </contour>
    <contour>
      <point x="86" y="522"/>
      <point x="191" y="531"/>
      <point x="284" y="531" type="curve" smooth="yes"/>
      <point x="378" y="531"/>
      <point x="492" y="521"/>
      <point x="559" y="504" type="curve"/>
      <point x="564" y="521"/>
      <point x="567" y="549"/>
      <point x="567" y="578" type="curve" smooth="yes"/>
      <point x="567" y="604"/>
      <point x="564" y="626"/>
      <point x="559" y="639" type="curve"/>
      <point x="489" y="658"/>
      <point x="380" y="670"/>
      <point x="289" y="670" type="curve" smooth="yes"/>
      <point x="195" y="670"/>
      <point x="75" y="658"/>
      <point x="0" y="639" type="curve"/>
      <point x="-6" y="626"/>
      <point x="-10" y="605"/>
      <point x="-10" y="581" type="curve" smooth="yes"/>
      <point x="-10" y="555"/>
      <point x="-6" y="526"/>
      <point x="0" y="504" type="curve"/>
    </contour>
  </outline>
</glyph>
<glyph name="bn_la" format="1">
  <advance width="676"/>
  <unicode hex="09B2"/>
  <outline>
    <contour>
      <point x="193" y="101"/>
      <point x="223" y="173"/>
      <point x="231" y="230" type="curve"/>
      <point x="216" y="225"/>
      <point x="196" y="221"/>
      <point x="177" y="221" type="curve" smooth="yes"/>
      <point x="139" y="221"/>
      <point x="98" y="236"/>
      <point x="98" y="260" type="curve" smooth="yes"/>
      <point x="98" y="281"/>
      <point x="126" y="294"/>
      <point x="161" y="294" type="curve" smooth="yes"/>
      <point x="208" y="294"/>
      <point x="244" y="270"/>
      <point x="272" y="224" type="curve"/>
      <point x="307" y="293" type="line"/>
      <point x="299" y="401"/>
      <point x="242" y="474"/>
      <point x="168" y="474" type="curve" smooth="yes"/>
      <point x="68" y="474"/>
      <point x="8" y="345"/>
      <point x="8" y="234" type="curve" smooth="yes"/>
      <point x="8" y="131"/>
      <point x="65" y="68"/>
      <point x="156" y="58" type="curve"/>
    </contour>
    <contour>
      <point x="324" y="216"/>
      <point x="354" y="227"/>
      <point x="379" y="238" type="curve"/>
      <point x="312" y="399" type="line"/>
      <point x="217" y="327" type="line"/>
      <point x="281" y="206" type="line"/>
    </contour>
    <contour>
      <point x="469" y="402"/>
      <point x="436" y="474"/>
      <point x="383" y="474" type="curve" smooth="yes"/>
      <point x="336" y="474"/>
      <point x="288" y="415"/>
      <point x="272" y="339" type="curve"/>
      <point x="379" y="238" type="line"/>
      <point x="369" y="257"/>
      <point x="364" y="274"/>
      <point x="364" y="286" type="curve" smooth="yes"/>
      <point x="364" y="304"/>
      <point x="374" y="317"/>
      <point x="390" y="317" type="curve" smooth="yes"/>
      <point x="414" y="317"/>
      <point x="431" y="288"/>
      <point x="431" y="250" type="curve" smooth="yes"/>
      <point x="431" y="243"/>
      <point x="430" y="235"/>
      <point x="429" y="227" type="curve"/>
      <point x="469" y="297" type="line"/>
    </contour>
    <contour>
      <point x="454" y="-37"/>
      <point x="521" y="-32"/>
      <point x="559" y="-24" type="curve"/>
      <point x="558" y="-12"/>
      <point x="558" y="2"/>
      <point x="558" y="18" type="curve" smooth="yes"/>
      <point x="558" y="86"/>
      <point x="566" y="184"/>
      <point x="581" y="290" type="curve" smooth="yes"/>
      <point x="592" y="370"/>
      <point x="602" y="417"/>
      <point x="631" y="530" type="curve"/>
      <point x="512" y="560" type="line"/>
      <point x="468" y="448"/>
      <point x="438" y="309"/>
      <point x="406" y="85" type="curve" smooth="yes"/>
      <point x="397" y="17"/>
      <point x="394" y="-12"/>
      <point x="393" y="-37" type="curve"/>
    </contour>
    <contour>
      <point x="97" y="524"/>
      <point x="221" y="535"/>
      <point x="331" y="535" type="curve" smooth="yes"/>
      <point x="445" y="535"/>
      <point x="583" y="523"/>
      <point x="676" y="504" type="curve"/>
      <point x="682" y="525"/>
      <point x="685" y="553"/>
      <point x="685" y="578" type="curve" smooth="yes"/>
      <point x="685" y="603"/>
      <point x="682" y="626"/>
      <point x="676" y="639" type="curve"/>
      <point x="600" y="660"/>
      <point x="458" y="674"/>
      <point x="336" y="674" type="curve" smooth="yes"/>
      <point x="218" y="674"/>
      <point x="89" y="661"/>
      <point x="0" y="639" type="curve"/>
      <point x="-7" y="627"/>
      <point x="-11" y="607"/>
      <point x="-11" y="581" type="curve" smooth="yes"/>
      <point x="-11" y="555"/>
      <point x="-7" y="524"/>
      <point x="0" y="504" type="curve"/>
    </contour>
  </outline>
</glyph>
<glyph name="bn_sha" format="1">
  <advance width="663"/>
  <unicode hex="09B6"/>
  <outline>
    <contour>
      <point x="592" y="113"/>
      <point x="598" y="286"/>
      <point x="603" y="438" type="curve" smooth="yes"/>
      <point x="604" y="472"/>
      <point x="608" y="484"/>
      <point x="632" y="494" type="curve" smooth="yes"/>
      <point x="641" y="498"/>
      <point x="658" y="503"/>
      <point x="663" y="504" type="curve"/>
      <point x="669" y="523"/>
      <point x="674" y="554"/>
      <point x="674" y="581" type="curve" smooth="yes"/>
      <point x="674" y="605"/>
      <point x="670" y="626"/>
      <point x="663" y="639" type="curve"/>
      <point x="622" y="632"/>
      <point x="574" y="619"/>
      <point x="547" y="607" type="curve" smooth="yes"/>
      <point x="514" y="592"/>
      <point x="492" y="567"/>
      <point x="492" y="524" type="curve" smooth="yes"/>
      <point x="492" y="469" type="line"/>
      <point x="455" y="478" type="line"/>
      <point x="455" y="281"/>
      <point x="436" y="119"/>
      <point x="396" y="-16" type="curve"/>
      <point x="440" y="-29"/>
      <point x="512" y="-36"/>
      <point x="561" y="-36" type="curve"/>
    </contour>
    <contour>
      <point x="193" y="229"/>
      <point x="250" y="308"/>
      <point x="250" y="380" type="curve" smooth="yes"/>
      <point x="250" y="421"/>
      <point x="231" y="462"/>
      <point x="208" y="490" type="curve"/>
      <point x="149" y="452" type="line"/>
      <point x="172" y="427"/>
      <point x="180" y="399"/>
      <point x="180" y="373" type="curve" smooth="yes"/>
      <point x="180" y="336"/>
      <point x="164" y="310"/>
      <point x="145" y="310" type="curve" smooth="yes"/>
      <point x="132" y="310"/>
      <point x="126" y="322"/>
      <point x="126" y="336" type="curve" smooth="yes"/>
      <point x="126" y="369"/>
      <point x="160" y="419"/>
      <point x="195" y="419" type="curve"/>
      <point x="237" y="466" type="line"/>
      <point x="179" y="519" type="line"/>
      <point x="90" y="519"/>
      <point x="2" y="439"/>
      <point x="2" y="345" type="curve" smooth="yes"/>
      <point x="2" y="274"/>
      <point x="52" y="229"/>
      <point x="113" y="229" type="curve" smooth="yes"/>
    </contour>
    <contour>
      <point x="211" y="604"/>
      <point x="168" y="649"/>
      <point x="87" y="649" type="curve" smooth="yes"/>
      <point x="63" y="649"/>
      <point x="30" y="645"/>
      <point x="0" y="639" type="curve"/>
      <point x="-7" y="624"/>
      <point x="-10" y="599"/>
      <point x="-10" y="575" type="curve" smooth="yes"/>
      <point x="-10" y="548"/>
      <point x="-6" y="521"/>
      <point x="0" y="504" type="curve"/>
      <point x="27" y="509"/>
      <point x="66" y="515"/>
      <point x="98" y="515" type="curve" smooth="yes"/>
      <point x="157" y="515"/>
      <point x="197" y="495"/>
      <point x="197" y="458" type="curve"/>
      <point x="228" y="496" type="line"/>
    </contour>
    <contour>
      <point x="375" y="230"/>
      <point x="426" y="276"/>
      <point x="426" y="350" type="curve" smooth="yes"/>
      <point x="426" y="432"/>
      <point x="363" y="498"/>
      <point x="276" y="511" type="curve"/>
      <point x="252" y="432" type="line"/>
      <point x="305" y="430"/>
      <point x="351" y="390"/>
      <point x="351" y="348" type="curve" smooth="yes"/>
      <point x="351" y="331"/>
      <point x="343" y="323"/>
      <point x="333" y="323" type="curve" smooth="yes"/>
      <point x="310" y="323"/>
      <point x="292" y="360"/>
      <point x="292" y="396" type="curve" smooth="yes"/>
      <point x="292" y="418"/>
      <point x="299" y="438"/>
      <point x="316" y="448" type="curve"/>
      <point x="258" y="508" type="line"/>
      <point x="220" y="479"/>
      <point x="184" y="431"/>
      <point x="184" y="370" type="curve" smooth="yes"/>
      <point x="184" y="300"/>
      <point x="232" y="230"/>
      <point x="311" y="230" type="curve" smooth="yes"/>
    </contour>
    <contour>
      <point x="510" y="518"/>
      <point x="446" y="659"/>
      <point x="351" y="659" type="curve" smooth="yes"/>
      <point x="278" y="659"/>
      <point x="217" y="579"/>
      <point x="203" y="473" type="curve"/>
      <point x="274" y="427" type="line"/>
      <point x="293" y="459"/>
      <point x="319" y="498"/>
      <point x="364" y="498" type="curve" smooth="yes"/>
      <point x="412" y="498"/>
      <point x="454" y="454"/>
      <point x="454" y="390" type="curve"/>
      <point x="503" y="331" type="line"/>
    </contour>
  </outline>
</glyph>
<glyph name="bn_ssa" format="1">
  <advance width="737"/>
  <unicode hex="09B7"/>
  <outline>
    <contour>
      <point x="529" y="-135" type="line"/>
      <point x="468" y="7"/>
      <point x="339" y="109"/>
      <point x="208" y="164" type="curve"/>
      <point x="202" y="73" type="line"/>
      <point x="402" y="306" type="line"/>
      <point x="263" y="418" type="line"/>
      <point x="62" y="191" type="line"/>
      <point x="67" y="138"/>
      <point x="96" y="82"/>
      <point x="151" y="42" type="curve"/>
      <point x="284" y="15"/>
      <point x="398" y="-60"/>
      <point x="485" y="-206" type="curve"/>
    </contour>
    <contour>
      <point x="548" y="315" type="line"/>
      <point x="420" y="374" type="line" smooth="yes"/>
      <point x="306" y="427"/>
      <point x="230" y="488"/>
      <point x="226" y="539" type="curve"/>
      <point x="32" y="528" type="line"/>
      <point x="32" y="467"/>
      <point x="145" y="386"/>
      <point x="239" y="346" type="curve" smooth="yes"/>
      <point x="509" y="231" type="line"/>
    </contour>
    <contour>
      <point x="540" y="-206"/>
      <point x="610" y="-197"/>
      <point x="655" y="-174" type="curve"/>
      <point x="630" y="-76"/>
      <point x="624" y="71"/>
      <point x="624" y="225" type="curve" smooth="yes"/>
      <point x="624" y="338"/>
      <point x="629" y="433"/>
      <point x="643" y="539" type="curve"/>
      <point x="518" y="569" type="line"/>
      <point x="486" y="371"/>
      <point x="473" y="230"/>
      <point x="473" y="17" type="curve" smooth="yes"/>
      <point x="473" y="-84"/>
      <point x="479" y="-152"/>
      <point x="485" y="-206" type="curve"/>
    </contour>
    <contour>
      <point x="93" y="523"/>
      <point x="212" y="539"/>
      <point x="377" y="539" type="curve" smooth="yes"/>
      <point x="515" y="539"/>
      <point x="655" y="523"/>
      <point x="737" y="504" type="curve"/>
      <point x="742" y="522"/>
      <point x="747" y="551"/>
      <point x="747" y="580" type="curve" smooth="yes"/>
      <point x="747" y="602"/>
      <point x="744" y="623"/>
      <point x="737" y="639" type="curve"/>
      <point x="663" y="661"/>
      <point x="520" y="679"/>
      <point x="383" y="679" type="curve" smooth="yes"/>
      <point x="215" y="679"/>
      <point x="92" y="661"/>
      <point x="0" y="639" type="curve"/>
      <point x="-8" y="626"/>
      <point x="-11" y="604"/>
      <point x="-11" y="581" type="curve" smooth="yes"/>
      <point x="-11" y="554"/>
      <point x="-7" y="524"/>
      <point x="0" y="504" type="curve"/>
    </contour>
  </outline>
</glyph>
<glyph name="bn_avagraha" format="1">
  <advance width="514"/>
  <unicode hex="09BD"/>
  <outline>
    <contour>
      <point x="469" y="-24"/>
      <point x="498" y="8"/>
      <point x="521" y="38" type="curve"/>
      <point x="413" y="125"/>
      <point x="320" y="195"/>
      <point x="225" y="249" type="curve"/>
      <point x="167" y="195" type="line"/>
      <point x="193" y="192"/>
      <point x="219" y="190"/>
      <point x="243" y="190" type="curve" smooth="yes"/>
      <point x="364" y="190"/>
      <point x="454" y="239"/>
      <point x="454" y="344" type="curve" smooth="yes"/>
      <point x="454" y="468"/>
      <point x="330" y="600"/>
      <point x="195" y="600" type="curve" smooth="yes"/>
      <point x="132" y="600"/>
      <point x="73" y="571"/>
      <point x="73" y="501" type="curve" smooth="yes"/>
      <point x="73" y="406"/>
      <point x="168" y="369"/>
      <point x="246" y="369" type="curve" smooth="yes"/>
      <point x="321" y="369"/>
      <point x="360" y="410"/>
      <point x="360" y="495" type="curve"/>
      <point x="273" y="492" type="line"/>
      <point x="271" y="465"/>
      <point x="249" y="444"/>
      <point x="215" y="444" type="curve" smooth="yes"/>
      <point x="190" y="444"/>
      <point x="172" y="456"/>
      <point x="172" y="474" type="curve" smooth="yes"/>
      <point x="172" y="490"/>
      <point x="187" y="503"/>
      <point x="220" y="503" type="curve" smooth="yes"/>
      <point x="277" y="503"/>
      <point x="319" y="456"/>
      <point x="319" y="403" type="curve" smooth="yes"/>
      <point x="319" y="359"/>
      <point x="289" y="337"/>
      <point x="215" y="337" type="curve" smooth="yes"/>
      <point x="158" y="337"/>
      <point x="89" y="350"/>
      <point x="24" y="379" type="curve"/>
      <point x="44" y="204" type="line"/>
      <point x="174" y="162"/>
      <point x="304" y="82"/>
      <point x="437" y="-50" type="curve"/>
    </contour>
    <contour>
      <point x="406" y="514"/>
      <point x="423" y="580"/>
      <point x="435" y="645" type="curve"/>
      <point x="405" y="664"/>
      <point x="354" y="679"/>
      <point x="312" y="683" type="curve"/>
      <point x="307" y="643"/>
      <point x="296" y="592"/>
      <point x="280" y="540" type="curve"/>
      <point x="378" y="442" type="line"/>
    </contour>
  </outline>
</glyph>
<glyph name="bn_aumark" format="1">
  <advance width="288"/>
  <unicode hex="09D7"/>
  <outline>
    <contour>
      <point x="202" y="556"/>
      <point x="239" y="591"/>
      <point x="239" y="670" type="curve" smooth="yes"/>
      <point x="239" y="742"/>
      <point x="200" y="791"/>
      <point x="124" y="837" type="curve" smooth="yes"/>
      <point x="71" y="869"/>
      <point x="38" y="899"/>
      <point x="38" y="957" type="curve" smooth="yes"/>
      <point x="38" y="972"/>
      <point x="40" y="989"/>
      <point x="44" y="1010" type="curve"/>
      <point x="10" y="1011"/>
      <point x="-32" y="1010"/>
      <point x="-75" y="996" type="curve"/>
      <point x="-80" y="971"/>
      <point x="-83" y="948"/>
      <point x="-83" y="928" type="curve" smooth="yes"/>
      <point x="-83" y="839"/>
      <point x="-29" y="792"/>
      <point x="52" y="739" type="curve" smooth="yes"/>
      <point x="122" y="693"/>
      <point x="162" y="670"/>
      <point x="162" y="631" type="curve" smooth="yes"/>
      <point x="162" y="590"/>
      <point x="143" y="568"/>
      <point x="114" y="551" type="curve"/>
      <point x="143" y="510" type="line"/>
    </contour>
    <contour>
      <point x="221" y="96"/>
      <point x="227" y="288"/>
      <point x="227" y="488" type="curve"/>
      <point x="111" y="477" type="line"/>
      <point x="82" y="473" type="line"/>
      <point x="80" y="247"/>
      <point x="67" y="89"/>
      <point x="48" y="-53" type="curve"/>
      <point x="84" y="-59"/>
      <point x="158" y="-63"/>
      <point x="215" y="-63" type="curve"/>
    </contour>
    <contour>
      <point x="171" y="534" type="line"/>
      <point x="141" y="583"/>
      <point x="64" y="624"/>
      <point x="0" y="639" type="curve"/>
      <point x="-7" y="628"/>
      <point x="-11" y="605"/>
      <point x="-11" y="580" type="curve" smooth="yes"/>
      <point x="-11" y="551"/>
      <point x="-6" y="520"/>
      <point x="0" y="504" type="curve"/>
      <point x="81" y="492"/>
      <point x="80" y="410"/>
      <point x="80" y="368" type="curve"/>
    </contour>
    <contour>
      <point x="219" y="468"/>
      <point x="244" y="496"/>
      <point x="288" y="504" type="curve"/>
      <point x="295" y="525"/>
      <point x="299" y="555"/>
      <point x="299" y="583" type="curve" smooth="yes"/>
      <point x="299" y="606"/>
      <point x="296" y="628"/>
      <point x="288" y="639" type="curve"/>
      <point x="205" y="624"/>
      <point x="125" y="580"/>
      <point x="89" y="500" type="curve" smooth="yes"/>
      <point x="206" y="434" type="line"/>
    </contour>
  </outline>
</glyph>
<glyph name="asa_ba" format="1">
  <advance width="525"/>
  <unicode hex="09F1"/>
  <outline>
    <contour>
      <point x="271" y="-118"/>
      <point x="289" y="-96"/>
      <point x="297" y="-74" type="curve"/>
      <point x="263" y="0"/>
      <point x="153" y="86"/>
      <point x="79" y="108" type="curve"/>
      <point x="56" y="85"/>
      <point x="39" y="55"/>
      <point x="27" y="20" type="curve"/>
      <point x="101" y="9"/>
      <point x="209" y="-57"/>
      <point x="249" y="-130" type="curve"/>
    </contour>
    <component base="bn_ba"/>
  </outline>
</glyph>
<glyph name="bn_aukaar" format="1">
  <advance width="1362"/>
  <outline>
    <contour>
      <point x="498" y="108"/>
      <point x="514" y="126"/>
      <point x="514" y="154" type="curve" smooth="yes"/>
      <point x="514" y="181"/>
      <point x="498" y="198"/>
      <point x="473" y="198" type="curve" smooth="yes"/>
      <point x="446" y="198"/>
      <point x="427" y="180"/>
      <point x="427" y="154" type="curve" smooth="yes"/>
      <point x="427" y="127"/>
      <point x="446" y="108"/>
      <point x="473" y="108" type="curve" smooth="yes"/>
    </contour>
    <contour>
      <point x="601" y="5"/>
      <point x="619" y="22"/>
      <point x="619" y="48" type="curve" smooth="yes"/>
      <point x="619" y="75"/>
      <point x="601" y="93"/>
      <point x="575" y="93" type="curve" smooth="yes"/>
      <point x="549" y="93"/>
      <point x="532" y="75"/>
      <point x="532" y="48" type="curve" smooth="yes"/>
      <point x="532" y="22"/>
      <point x="549" y="5"/>
      <point x="575" y="5" type="curve" smooth="yes"/>
    </contour>
    <contour>
      <point x="747" y="-35"/>
      <point x="764" y="-18"/>
      <point x="764" y="9" type="curve" smooth="yes"/>
      <point x="764" y="37"/>
      <point x="747" y="54"/>
      <point x="720" y="54" type="curve" smooth="yes"/>
      <point x="693" y="54"/>
      <point x="677" y="37"/>
      <point x="677" y="9" type="curve" smooth="yes"/>
      <point x="677" y="-19"/>
      <point x="693" y="-35"/>
      <point x="720" y="-35" type="curve" smooth="yes"/>
    </contour>
    <contour>
      <point x="497" y="391"/>
      <point x="514" y="409"/>
      <point x="514" y="435" type="curve" smooth="yes"/>
      <point x="514" y="463"/>
      <point x="499" y="480"/>
      <point x="473" y="480" type="curve" smooth="yes"/>
      <point x="446" y="480"/>
      <point x="427" y="462"/>
      <point x="427" y="436" type="curve" smooth="yes"/>
      <point x="427" y="410"/>
      <point x="446" y="391"/>
      <point x="473" y="391" type="curve" smooth="yes"/>
    </contour>
    <contour>
      <point x="890" y="5"/>
      <point x="908" y="22"/>
      <point x="908" y="48" type="curve" smooth="yes"/>
      <point x="908" y="75"/>
      <point x="890" y="93"/>
      <point x="863" y="93" type="curve" smooth="yes"/>
      <point x="837" y="93"/>
      <point x="820" y="75"/>
      <point x="820" y="48" type="curve" smooth="yes"/>
      <point x="820" y="22"/>
      <point x="837" y="5"/>
      <point x="863" y="5" type="curve" smooth="yes"/>
    </contour>
    <contour>
      <point x="601" y="497"/>
      <point x="619" y="514"/>
      <point x="619" y="540" type="curve" smooth="yes"/>
      <point x="619" y="567"/>
      <point x="601" y="585"/>
      <point x="575" y="585" type="curve" smooth="yes"/>
      <point x="549" y="585"/>
      <point x="532" y="567"/>
      <point x="532" y="540" type="curve" smooth="yes"/>
      <point x="532" y="514"/>
      <point x="549" y="497"/>
      <point x="575" y="497" type="curve" smooth="yes"/>
    </contour>
    <contour>
      <point x="996" y="108"/>
      <point x="1012" y="126"/>
      <point x="1012" y="154" type="curve" smooth="yes"/>
      <point x="1012" y="181"/>
      <point x="996" y="198"/>
      <point x="970" y="198" type="curve" smooth="yes"/>
      <point x="944" y="198"/>
      <point x="925" y="179"/>
      <point x="925" y="154" type="curve" smooth="yes"/>
      <point x="925" y="127"/>
      <point x="944" y="108"/>
      <point x="970" y="108" type="curve" smooth="yes"/>
    </contour>
    <contour>
      <point x="748" y="536"/>
      <point x="764" y="552"/>
      <point x="764" y="580" type="curve" smooth="yes"/>
      <point x="764" y="608"/>
      <point x="747" y="625"/>
      <point x="720" y="625" type="curve" smooth="yes"/>
      <point x="693" y="625"/>
      <point x="677" y="608"/>
      <point x="677" y="580" type="curve" smooth="yes"/>
      <point x="677" y="552"/>
      <point x="693" y="536"/>
      <point x="720" y="536" type="curve" smooth="yes"/>
    </contour>
    <contour>
      <point x="1035" y="250"/>
      <point x="1051" y="267"/>
      <point x="1051" y="295" type="curve" smooth="yes"/>
      <point x="1051" y="323"/>
      <point x="1035" y="339"/>
      <point x="1008" y="339" type="curve" smooth="yes"/>
      <point x="982" y="339"/>
      <point x="964" y="321"/>
      <point x="964" y="295" type="curve" smooth="yes"/>
      <point x="964" y="269"/>
      <point x="982" y="250"/>
      <point x="1008" y="250" type="curve" smooth="yes"/>
    </contour>
    <contour>
      <point x="996" y="391"/>
      <point x="1012" y="408"/>
      <point x="1012" y="436" type="curve" smooth="yes"/>
      <point x="1012" y="463"/>
      <point x="996" y="480"/>
      <point x="970" y="480" type="curve" smooth="yes"/>
      <point x="944" y="480"/>
      <point x="925" y="461"/>
      <point x="925" y="436" type="curve" smooth="yes"/>
      <point x="925" y="410"/>
      <point x="944" y="391"/>
      <point x="970" y="391" type="curve" smooth="yes"/>
    </contour>
    <contour>
      <point x="890" y="497"/>
      <point x="908" y="514"/>
      <point x="908" y="540" type="curve" smooth="yes"/>
      <point x="908" y="567"/>
      <point x="890" y="585"/>
      <point x="863" y="585" type="curve" smooth="yes"/>
      <point x="837" y="585"/>
      <point x="820" y="567"/>
      <point x="820" y="540" type="curve" smooth="yes"/>
      <point x="820" y="514"/>
      <point x="837" y="497"/>
      <point x="863" y="497" type="curve" smooth="yes"/>
    </contour>
    <contour>
      <point x="461" y="250"/>
      <point x="477" y="267"/>
      <point x="477" y="295" type="curve" smooth="yes"/>
      <point x="477" y="323"/>
      <point x="461" y="339"/>
      <point x="434" y="339" type="curve" smooth="yes"/>
      <point x="407" y="339"/>
      <point x="389" y="321"/>
      <point x="389" y="295" type="curve" smooth="yes"/>
      <point x="389" y="268"/>
      <point x="407" y="250"/>
      <point x="434" y="250" type="curve" smooth="yes"/>
    </contour>
    <component base="bn_ekaar"/>
    <component base="bn_aumark" xOffset="1074"/>
  </outline>
</glyph>
<glyph name="bn_g_ukaar" format="1">
  <advance width="780"/>
  <outline>
    <contour>
      <point x="661" y="-84"/>
      <point x="746" y="-1"/>
      <point x="746" y="105" type="curve" smooth="yes"/>
      <point x="746" y="169"/>
      <point x="715" y="240"/>
      <point x="651" y="281" type="curve"/>
      <point x="581" y="214" type="line"/>
      <point x="607" y="202"/>
      <point x="625" y="178"/>
      <point x="625" y="150" type="curve" smooth="yes"/>
      <point x="625" y="108"/>
      <point x="584" y="87"/>
      <point x="527" y="87" type="curve" smooth="yes"/>
      <point x="344" y="87"/>
      <point x="200" y="302"/>
      <point x="126" y="559" type="curve"/>
      <point x="87" y="551"/>
      <point x="49" y="540"/>
      <point x="14" y="528" type="curve"/>
      <point x="85" y="251"/>
      <point x="206" y="-84"/>
      <point x="510" y="-84" type="curve" smooth="yes"/>
    </contour>
    <contour>
      <point x="599" y="146"/>
      <point x="639" y="190"/>
      <point x="652" y="256" type="curve"/>
      <point x="576" y="313" type="line"/>
      <point x="564" y="285"/>
      <point x="547" y="259"/>
      <point x="526" y="259" type="curve" smooth="yes"/>
      <point x="512" y="259"/>
      <point x="503" y="269"/>
      <point x="503" y="282" type="curve" smooth="yes"/>
      <point x="503" y="295"/>
      <point x="514" y="307"/>
      <point x="529" y="307" type="curve" smooth="yes"/>
      <point x="549" y="307"/>
      <point x="568" y="284"/>
      <point x="580" y="241" type="curve"/>
      <point x="611" y="326" type="line"/>
      <point x="602" y="350"/>
      <point x="570" y="371"/>
      <point x="536" y="371" type="curve" smooth="yes"/>
      <point x="486" y="371"/>
      <point x="438" y="326"/>
      <point x="438" y="258" type="curve" smooth="yes"/>
      <point x="438" y="189"/>
      <point x="486" y="146"/>
      <point x="542" y="146" type="curve" smooth="yes"/>
    </contour>
    <contour>
      <point x="703" y="264"/>
      <point x="735" y="332"/>
      <point x="735" y="413" type="curve" smooth="yes"/>
      <point x="735" y="518"/>
      <point x="680" y="544"/>
      <point x="680" y="649" type="curve"/>
      <point x="633" y="665"/>
      <point x="600" y="669"/>
      <point x="555" y="669" type="curve"/>
      <point x="516" y="634"/>
      <point x="481" y="590"/>
      <point x="446" y="534" type="curve"/>
      <point x="476" y="473" type="line"/>
      <point x="472" y="597"/>
      <point x="422" y="683"/>
      <point x="336" y="683" type="curve" smooth="yes"/>
      <point x="250" y="683"/>
      <point x="192" y="602"/>
      <point x="192" y="508" type="curve" smooth="yes"/>
      <point x="192" y="482"/>
      <point x="196" y="463"/>
      <point x="202" y="445" type="curve"/>
      <point x="242" y="373" type="line"/>
      <point x="284" y="406"/>
      <point x="334" y="426"/>
      <point x="355" y="426" type="curve" smooth="yes"/>
      <point x="365" y="426"/>
      <point x="369" y="422"/>
      <point x="369" y="417" type="curve" smooth="yes"/>
      <point x="369" y="399"/>
      <point x="323" y="367"/>
      <point x="263" y="332" type="curve"/>
      <point x="285" y="292"/>
      <point x="321" y="252"/>
      <point x="359" y="224" type="curve"/>
      <point x="423" y="293"/>
      <point x="447" y="341"/>
      <point x="447" y="393" type="curve" smooth="yes"/>
      <point x="447" y="464"/>
      <point x="403" y="522"/>
      <point x="343" y="522" type="curve" smooth="yes"/>
      <point x="302" y="522"/>
      <point x="260" y="496"/>
      <point x="232" y="471" type="curve"/>
      <point x="325" y="464" type="line"/>
      <point x="308" y="479"/>
      <point x="299" y="497"/>
      <point x="299" y="514" type="curve" smooth="yes"/>
      <point x="299" y="541"/>
      <point x="319" y="557"/>
      <point x="348" y="557" type="curve" smooth="yes"/>
      <point x="405" y="557"/>
      <point x="462" y="503"/>
      <point x="472" y="426" type="curve"/>
      <point x="487" y="410"/>
      <point x="506" y="400"/>
      <point x="529" y="395" type="curve"/>
      <point x="559" y="444"/>
      <point x="618" y="510"/>
      <point x="664" y="542" type="curve"/>
      <point x="622" y="569" type="line"/>
      <point x="620" y="534"/>
      <point x="634" y="501"/>
      <point x="634" y="466" type="curve" smooth="yes"/>
      <point x="634" y="407"/>
      <point x="612" y="362"/>
      <point x="572" y="327" type="curve"/>
      <point x="651" y="224" type="line"/>
    </contour>
  </outline>
</glyph>
<glyph name="bn_ikaar.fl" format="1">
  <advance width="288"/>
  <outline>
    <contour>
      <point x="146" y="-69"/>
      <point x="223" y="-61"/>
      <point x="260" y="-50" type="curve"/>
      <point x="228" y="119"/>
      <point x="213" y="279"/>
      <point x="223" y="497" type="curve"/>
      <point x="189" y="577" type="line"/>
      <point x="172" y="630"/>
      <point x="156" y="686"/>
      <point x="156" y="744" type="curve" smooth="yes"/>
      <point x="156" y="860"/>
      <point x="221" y="893"/>
      <point x="369" y="893" type="curve" smooth="yes"/>
      <point x="451" y="893"/>
      <point x="568" y="883"/>
      <point x="741" y="850" type="curve"/>
      <point x="757" y="880"/>
      <point x="766" y="909"/>
      <point x="769" y="947" type="curve"/>
      <point x="642" y="982"/>
      <point x="463" y="1011"/>
      <point x="335" y="1011" type="curve" smooth="yes"/>
      <point x="117" y="1011"/>
      <point x="19" y="927"/>
      <point x="19" y="801" type="curve" smooth="yes"/>
      <point x="19" y="695"/>
      <point x="88" y="617"/>
      <point x="154" y="542" type="curve"/>
      <point x="121" y="477" type="line"/>
      <point x="75" y="479" type="line"/>
      <point x="68" y="339"/>
      <point x="73" y="80"/>
      <point x="90" y="-69" type="curve"/>
    </contour>
    <contour>
      <point x="164" y="534" type="line"/>
      <point x="135" y="583"/>
      <point x="61" y="624"/>
      <point x="0" y="639" type="curve"/>
      <point x="-16" y="616"/>
      <point x="-12" y="534"/>
      <point x="0" y="504" type="curve"/>
      <point x="74" y="492"/>
      <point x="73" y="410"/>
      <point x="73" y="368" type="curve"/>
    </contour>
    <contour>
      <point x="215" y="468"/>
      <point x="241" y="496"/>
      <point x="288" y="504" type="curve"/>
      <point x="300" y="542"/>
      <point x="305" y="614"/>
      <point x="288" y="639" type="curve"/>
      <point x="203" y="624"/>
      <point x="121" y="580"/>
      <point x="84" y="500" type="curve"/>
      <point x="201" y="434" type="line"/>
    </contour>
  </outline>
</glyph>
<glyph name="bn_m_la" format="1">
  <advance width="616"/>
  <outline>
    <contour>
      <point x="515" y="232"/>
      <point x="590" y="293"/>
      <point x="590" y="400" type="curve" smooth="yes"/>
      <point x="590" y="494"/>
      <point x="520" y="563"/>
      <point x="417" y="607" type="curve"/>
      <point x="370" y="534" type="line"/>
      <point x="470" y="528"/>
      <point x="488" y="484"/>
      <point x="488" y="454" type="curve" smooth="yes"/>
      <point x="488" y="421"/>
      <point x="456" y="383"/>
      <point x="397" y="383" type="curve" smooth="yes"/>
      <point x="370" y="383"/>
      <point x="322" y="392"/>
      <point x="307" y="429" type="curve"/>
      <point x="215" y="362" type="line"/>
      <point x="257" y="281"/>
      <point x="338" y="232"/>
      <point x="423" y="232" type="curve" smooth="yes"/>
    </contour>
    <contour>
      <point x="196" y="-58"/>
      <point x="211" y="-3"/>
      <point x="211" y="40" type="curve"/>
      <point x="197" y="35"/>
      <point x="179" y="32"/>
      <point x="161" y="32" type="curve" smooth="yes"/>
      <point x="132" y="32"/>
      <point x="96" y="44"/>
      <point x="96" y="62" type="curve" smooth="yes"/>
      <point x="96" y="75"/>
      <point x="111" y="82"/>
      <point x="135" y="82" type="curve" smooth="yes"/>
      <point x="181" y="82"/>
      <point x="216" y="62"/>
      <point x="246" y="25" type="curve"/>
      <point x="276" y="77" type="line"/>
      <point x="252" y="162"/>
      <point x="195" y="220"/>
      <point x="129" y="220" type="curve" smooth="yes"/>
      <point x="62" y="220"/>
      <point x="14" y="157"/>
      <point x="14" y="72" type="curve" smooth="yes"/>
      <point x="14" y="-27"/>
      <point x="80" y="-81"/>
      <point x="173" y="-90" type="curve"/>
    </contour>
    <contour>
      <point x="299" y="8"/>
      <point x="323" y="16"/>
      <point x="342" y="24" type="curve"/>
      <point x="266" y="145" type="line"/>
      <point x="198" y="90" type="line"/>
      <point x="264" y="0" type="line"/>
    </contour>
    <contour>
      <point x="421" y="13" type="line"/>
      <point x="413" y="139"/>
      <point x="361" y="222"/>
      <point x="307" y="222" type="curve" smooth="yes"/>
      <point x="267" y="222"/>
      <point x="240" y="178"/>
      <point x="235" y="111" type="curve"/>
      <point x="273" y="39" type="line"/>
      <point x="337" y="32" type="line"/>
      <point x="327" y="49"/>
      <point x="319" y="62"/>
      <point x="319" y="77" type="curve" smooth="yes"/>
      <point x="319" y="88"/>
      <point x="323" y="95"/>
      <point x="335" y="95" type="curve" smooth="yes"/>
      <point x="358" y="95"/>
      <point x="398" y="35"/>
      <point x="403" y="-84" type="curve"/>
    </contour>
    <contour>
      <point x="221" y="235"/>
      <point x="272" y="270"/>
      <point x="293" y="331" type="curve"/>
      <point x="227" y="422" type="line"/>
      <point x="224" y="382"/>
      <point x="200" y="367"/>
      <point x="169" y="367" type="curve" smooth="yes"/>
      <point x="142" y="367"/>
      <point x="124" y="378"/>
      <point x="124" y="399" type="curve" smooth="yes"/>
      <point x="124" y="416"/>
      <point x="137" y="426"/>
      <point x="153" y="426" type="curve" smooth="yes"/>
      <point x="183" y="426"/>
      <point x="214" y="395"/>
      <point x="226" y="335" type="curve"/>
      <point x="272" y="418" type="line"/>
      <point x="252" y="471"/>
      <point x="206" y="501"/>
      <point x="156" y="501" type="curve" smooth="yes"/>
      <point x="85" y="501"/>
      <point x="36" y="444"/>
      <point x="36" y="365" type="curve" smooth="yes"/>
      <point x="36" y="281"/>
      <point x="99" y="235"/>
      <point x="164" y="235" type="curve" smooth="yes"/>
    </contour>
    <contour>
      <point x="461" y="-84"/>
      <point x="517" y="-79"/>
      <point x="556" y="-67" type="curve"/>
      <point x="540" y="8"/>
      <point x="531" y="120"/>
      <point x="531" y="243" type="curve" smooth="yes"/>
      <point x="531" y="272"/>
      <point x="531" y="300"/>
      <point x="532" y="326" type="curve"/>
      <point x="403" y="296" type="line"/>
      <point x="399" y="222"/>
      <point x="397" y="139"/>
      <point x="397" y="83" type="curve" smooth="yes"/>
      <point x="397" y="-5"/>
      <point x="402" y="-27"/>
      <point x="403" y="-84" type="curve"/>
    </contour>
    <contour>
      <point x="323" y="333"/>
      <point x="355" y="376"/>
      <point x="355" y="435" type="curve" smooth="yes"/>
      <point x="355" y="490"/>
      <point x="320" y="541"/>
      <point x="259" y="569" type="curve"/>
      <point x="154" y="548" type="line"/>
      <point x="202" y="528"/>
      <point x="253" y="512"/>
      <point x="253" y="474" type="curve" smooth="yes"/>
      <point x="253" y="446"/>
      <point x="232" y="435"/>
      <point x="218" y="431" type="curve"/>
      <point x="281" y="288" type="line"/>
    </contour>
    <contour>
      <point x="76" y="520"/>
      <point x="172" y="535"/>
      <point x="297" y="535" type="curve" smooth="yes"/>
      <point x="421" y="535"/>
      <point x="540" y="520"/>
      <point x="616" y="504" type="curve"/>
      <point x="622" y="521"/>
      <point x="626" y="549"/>
      <point x="626" y="577" type="curve" smooth="yes"/>
      <point x="626" y="601"/>
      <point x="623" y="624"/>
      <point x="616" y="639" type="curve"/>
      <point x="549" y="658"/>
      <point x="443" y="674"/>
      <point x="308" y="674" type="curve" smooth="yes"/>
      <point x="172" y="674"/>
      <point x="74" y="658"/>
      <point x="0" y="639" type="curve"/>
      <point x="-8" y="626"/>
      <point x="-11" y="604"/>
      <point x="-11" y="579" type="curve" smooth="yes"/>
      <point x="-11" y="551"/>
      <point x="-6" y="521"/>
      <point x="0" y="504" type="curve"/>
    </contour>
  </outline>
</glyph>
<glyph name="bn_ng_ka" format="1">
  <advance width="696"/>
  <outline>
    <contour>
      <point x="207" y="420" type="line"/>
      <point x="209" y="408"/>
      <point x="210" y="396"/>
      <point x="210" y="383" type="curve" smooth="yes"/>
      <point x="210" y="332"/>
      <point x="195" y="308"/>
      <point x="168" y="308" type="curve" smooth="yes"/>
      <point x="149" y="308"/>
      <point x="139" y="320"/>
      <point x="139" y="333" type="curve" smooth="yes"/>
      <point x="139" y="362"/>
      <point x="188" y="378"/>
      <point x="278" y="378" type="curve" smooth="yes"/>
      <point x="385" y="378"/>
      <point x="403" y="355"/>
      <point x="403" y="319" type="curve" smooth="yes"/>
      <point x="403" y="310"/>
      <point x="402" y="242"/>
      <point x="383" y="177" type="curve"/>
      <point x="367" y="81"/>
      <point x="345" y="-35"/>
      <point x="311" y="-106" type="curve"/>
      <point x="345" y="-121"/>
      <point x="410" y="-133"/>
      <point x="462" y="-133" type="curve"/>
      <point x="494" y="-29"/>
      <point x="510" y="196"/>
      <point x="510" y="259" type="curve" smooth="yes"/>
      <point x="510" y="419"/>
      <point x="392" y="508"/>
      <point x="236" y="508" type="curve" smooth="yes"/>
      <point x="124" y="508"/>
      <point x="21" y="456"/>
      <point x="21" y="358" type="curve" smooth="yes"/>
      <point x="21" y="286"/>
      <point x="77" y="233"/>
      <point x="159" y="233" type="curve" smooth="yes"/>
      <point x="246" y="233"/>
      <point x="297" y="294"/>
      <point x="297" y="387" type="curve" smooth="yes"/>
      <point x="297" y="406"/>
      <point x="295" y="423"/>
      <point x="290" y="440" type="curve"/>
    </contour>
    <contour>
      <point x="354" y="-55" type="line"/>
      <point x="336" y="17"/>
      <point x="286" y="81"/>
      <point x="229" y="114" type="curve"/>
      <point x="208" y="49" type="line"/>
      <point x="255" y="90"/>
      <point x="367" y="144"/>
      <point x="417" y="155" type="curve"/>
      <point x="436" y="312" type="line"/>
      <point x="333" y="283"/>
      <point x="176" y="204"/>
      <point x="121" y="162" type="curve"/>
      <point x="124" y="112"/>
      <point x="140" y="74"/>
      <point x="169" y="27" type="curve"/>
      <point x="228" y="13"/>
      <point x="278" y="-37"/>
      <point x="311" y="-106" type="curve"/>
    </contour>
    <contour>
      <point x="641" y="-37"/>
      <point x="680" y="26"/>
      <point x="680" y="90" type="curve" smooth="yes"/>
      <point x="680" y="178"/>
      <point x="605" y="272"/>
      <point x="506" y="302" type="curve"/>
      <point x="484" y="152" type="line"/>
      <point x="550" y="143"/>
      <point x="605" y="133"/>
      <point x="605" y="109" type="curve" smooth="yes"/>
      <point x="605" y="86"/>
      <point x="556" y="66"/>
      <point x="513" y="62" type="curve"/>
      <point x="524" y="5"/>
      <point x="557" y="-49"/>
      <point x="588" y="-63" type="curve"/>
    </contour>
    <contour>
      <point x="625" y="415"/>
      <point x="668" y="459"/>
      <point x="668" y="520" type="curve" smooth="yes"/>
      <point x="668" y="533"/>
      <point x="666" y="547"/>
      <point x="662" y="558" type="curve"/>
      <point x="646" y="513" type="line"/>
      <point x="665" y="510"/>
      <point x="681" y="507"/>
      <point x="696" y="504" type="curve"/>
      <point x="701" y="521"/>
      <point x="705" y="549"/>
      <point x="705" y="577" type="curve" smooth="yes"/>
      <point x="705" y="601"/>
      <point x="702" y="624"/>
      <point x="696" y="639" type="curve"/>
      <point x="627" y="658"/>
      <point x="488" y="674"/>
      <point x="348" y="674" type="curve" smooth="yes"/>
      <point x="208" y="674"/>
      <point x="77" y="658"/>
      <point x="0" y="639" type="curve"/>
      <point x="-8" y="626"/>
      <point x="-11" y="605"/>
      <point x="-11" y="582" type="curve" smooth="yes"/>
      <point x="-11" y="554"/>
      <point x="-6" y="523"/>
      <point x="0" y="504" type="curve"/>
      <point x="79" y="520"/>
      <point x="207" y="535"/>
      <point x="341" y="535" type="curve" smooth="yes"/>
      <point x="375" y="535"/>
      <point x="401" y="534"/>
      <point x="429" y="533" type="curve"/>
      <point x="353" y="568" type="line"/>
      <point x="399" y="469"/>
      <point x="496" y="415"/>
      <point x="564" y="415" type="curve" smooth="yes"/>
    </contour>
    <contour>
      <point x="517" y="501"/>
      <point x="482" y="523"/>
      <point x="444" y="554" type="curve"/>
      <point x="444" y="530" type="line"/>
      <point x="488" y="554"/>
      <point x="518" y="569"/>
      <point x="559" y="569" type="curve" smooth="yes"/>
      <point x="597" y="569"/>
      <point x="613" y="556"/>
      <point x="613" y="537" type="curve" smooth="yes"/>
      <point x="613" y="516"/>
      <point x="595" y="501"/>
      <point x="560" y="501" type="curve" smooth="yes"/>
    </contour>
    <contour>
      <point x="637" y="678"/>
      <point x="600" y="705"/>
      <point x="546" y="705" type="curve" smooth="yes"/>
      <point x="511" y="705"/>
      <point x="468" y="694"/>
      <point x="428" y="672" type="curve"/>
      <point x="582" y="648" type="line"/>
      <point x="654" y="627" type="line"/>
    </contour>
    <contour>
      <point x="297" y="436" type="line"/>
      <point x="280" y="509"/>
      <point x="229" y="552"/>
      <point x="178" y="597" type="curve"/>
      <point x="106" y="524" type="line"/>
      <point x="161" y="524"/>
      <point x="199" y="493"/>
      <point x="208" y="420" type="curve"/>
    </contour>
  </outline>
</glyph>
<glyph name="bn_nn_dda" format="1">
  <advance width="780"/>
  <outline>
    <contour>
      <point x="667" y="-84"/>
      <point x="746" y="-1"/>
      <point x="746" y="104" type="curve" smooth="yes"/>
      <point x="746" y="169"/>
      <point x="715" y="240"/>
      <point x="651" y="281" type="curve"/>
      <point x="581" y="214" type="line"/>
      <point x="607" y="202"/>
      <point x="625" y="178"/>
      <point x="625" y="150" type="curve" smooth="yes"/>
      <point x="625" y="108"/>
      <point x="586" y="87"/>
      <point x="528" y="87" type="curve" smooth="yes"/>
      <point x="342" y="87"/>
      <point x="199" y="305"/>
      <point x="126" y="559" type="curve"/>
      <point x="87" y="551"/>
      <point x="49" y="540"/>
      <point x="14" y="528" type="curve"/>
      <point x="85" y="252"/>
      <point x="213" y="-84"/>
      <point x="516" y="-84" type="curve" smooth="yes"/>
    </contour>
    <contour>
      <point x="601" y="145"/>
      <point x="642" y="189"/>
      <point x="655" y="255" type="curve"/>
      <point x="576" y="313" type="line"/>
      <point x="564" y="285"/>
      <point x="547" y="259"/>
      <point x="526" y="259" type="curve" smooth="yes"/>
      <point x="512" y="259"/>
      <point x="503" y="269"/>
      <point x="503" y="282" type="curve" smooth="yes"/>
      <point x="503" y="295"/>
      <point x="514" y="307"/>
      <point x="529" y="307" type="curve" smooth="yes"/>
      <point x="549" y="307"/>
      <point x="568" y="284"/>
      <point x="580" y="241" type="curve"/>
      <point x="611" y="327" type="line"/>
      <point x="602" y="352"/>
      <point x="570" y="373"/>
      <point x="536" y="373" type="curve" smooth="yes"/>
      <point x="485" y="373"/>
      <point x="436" y="327"/>
      <point x="436" y="258" type="curve" smooth="yes"/>
      <point x="436" y="188"/>
      <point x="485" y="145"/>
      <point x="542" y="145" type="curve" smooth="yes"/>
    </contour>
    <contour>
      <point x="703" y="264"/>
      <point x="735" y="332"/>
      <point x="735" y="413" type="curve" smooth="yes"/>
      <point x="735" y="518"/>
      <point x="680" y="544"/>
      <point x="680" y="649" type="curve"/>
      <point x="633" y="665"/>
      <point x="600" y="669"/>
      <point x="555" y="669" type="curve"/>
      <point x="511" y="629"/>
      <point x="471" y="578"/>
      <point x="431" y="510" type="curve"/>
      <point x="490" y="435" type="line"/>
      <point x="475" y="571"/>
      <point x="431" y="669"/>
      <point x="348" y="669" type="curve"/>
      <point x="259" y="669"/>
      <point x="205" y="583"/>
      <point x="205" y="482" type="curve" smooth="yes"/>
      <point x="205" y="377"/>
      <point x="264" y="291"/>
      <point x="346" y="291" type="curve" smooth="yes"/>
      <point x="410" y="291"/>
      <point x="451" y="342"/>
      <point x="451" y="401" type="curve" smooth="yes"/>
      <point x="451" y="410"/>
      <point x="450" y="414"/>
      <point x="450" y="418" type="curve"/>
      <point x="423" y="448"/>
      <point x="384" y="472"/>
      <point x="345" y="484" type="curve"/>
      <point x="348" y="473"/>
      <point x="348" y="461"/>
      <point x="348" y="452" type="curve" smooth="yes"/>
      <point x="348" y="426"/>
      <point x="341" y="396"/>
      <point x="318" y="396" type="curve" smooth="yes"/>
      <point x="303" y="396"/>
      <point x="292" y="408"/>
      <point x="292" y="432" type="curve" smooth="yes"/>
      <point x="292" y="469"/>
      <point x="319" y="503"/>
      <point x="369" y="503" type="curve" smooth="yes"/>
      <point x="413" y="503"/>
      <point x="451" y="477"/>
      <point x="468" y="428" type="curve"/>
      <point x="482" y="413"/>
      <point x="506" y="401"/>
      <point x="529" y="395" type="curve"/>
      <point x="559" y="444"/>
      <point x="618" y="510"/>
      <point x="664" y="542" type="curve"/>
      <point x="624" y="569" type="line"/>
      <point x="622" y="533"/>
      <point x="636" y="504"/>
      <point x="636" y="463" type="curve" smooth="yes"/>
      <point x="636" y="413"/>
      <point x="615" y="364"/>
      <point x="572" y="327" type="curve"/>
      <point x="606" y="266" type="line"/>
      <point x="651" y="224" type="line"/>
    </contour>
  </outline>
</glyph>
<glyph name="bn_s_pa" format="1">
  <advance width="1130"/>
  <outline>
    <contour>
      <point x="977" y="-37"/>
      <point x="1042" y="-34"/>
      <point x="1088" y="-24" type="curve"/>
      <point x="1068" y="42"/>
      <point x="1057" y="154"/>
      <point x="1057" y="302" type="curve" smooth="yes"/>
      <point x="1057" y="346"/>
      <point x="1058" y="386"/>
      <point x="1065" y="450" type="curve" smooth="yes"/>
      <point x="1067" y="471"/>
      <point x="1075" y="485"/>
      <point x="1097" y="494" type="curve" smooth="yes"/>
      <point x="1107" y="498"/>
      <point x="1121" y="502"/>
      <point x="1130" y="504" type="curve"/>
      <point x="1136" y="523"/>
      <point x="1141" y="551"/>
      <point x="1141" y="578" type="curve" smooth="yes"/>
      <point x="1141" y="602"/>
      <point x="1137" y="626"/>
      <point x="1130" y="639" type="curve"/>
      <point x="1092" y="633"/>
      <point x="1033" y="618"/>
      <point x="1005" y="607" type="curve" smooth="yes"/>
      <point x="965" y="591"/>
      <point x="952" y="564"/>
      <point x="941" y="523" type="curve" smooth="yes"/>
      <point x="915" y="424"/>
      <point x="911" y="274"/>
      <point x="911" y="173" type="curve" smooth="yes"/>
      <point x="911" y="86"/>
      <point x="914" y="3"/>
      <point x="923" y="-37" type="curve"/>
    </contour>
    <contour>
      <point x="967" y="504"/>
      <point x="881" y="657"/>
      <point x="733" y="657" type="curve" smooth="yes"/>
      <point x="652" y="657"/>
      <point x="571" y="610"/>
      <point x="508" y="537" type="curve"/>
      <point x="536" y="394" type="line"/>
      <point x="586" y="394"/>
      <point x="634" y="373"/>
      <point x="634" y="327" type="curve" smooth="yes"/>
      <point x="634" y="312"/>
      <point x="629" y="294"/>
      <point x="612" y="281" type="curve"/>
      <point x="691" y="343" type="line"/>
      <point x="705" y="352"/>
      <point x="715" y="374"/>
      <point x="715" y="397" type="curve" smooth="yes"/>
      <point x="715" y="434"/>
      <point x="690" y="468"/>
      <point x="651" y="488" type="curve"/>
      <point x="633" y="425" type="line"/>
      <point x="677" y="489"/>
      <point x="711" y="514"/>
      <point x="758" y="514" type="curve" smooth="yes"/>
      <point x="833" y="514"/>
      <point x="919" y="449"/>
      <point x="919" y="326" type="curve"/>
      <point x="967" y="294" type="line"/>
    </contour>
    <contour>
      <point x="803" y="221"/>
      <point x="895" y="319"/>
      <point x="940" y="410" type="curve"/>
      <point x="879" y="541" type="line"/>
      <point x="793" y="425"/>
      <point x="690" y="340"/>
      <point x="595" y="269" type="curve"/>
      <point x="622" y="217"/>
      <point x="659" y="173"/>
      <point x="708" y="139" type="curve"/>
    </contour>
    <contour>
      <point x="213" y="257"/>
      <point x="259" y="361"/>
      <point x="263" y="538" type="curve"/>
      <point x="178" y="549" type="line"/>
      <point x="176" y="434"/>
      <point x="148" y="391"/>
      <point x="90" y="391" type="curve" smooth="yes"/>
      <point x="58" y="391"/>
      <point x="26" y="404"/>
      <point x="8" y="420" type="curve"/>
      <point x="54" y="268" type="line"/>
      <point x="72" y="261"/>
      <point x="91" y="257"/>
      <point x="111" y="257" type="curve" smooth="yes"/>
    </contour>
    <contour>
      <point x="517" y="229"/>
      <point x="562" y="299"/>
      <point x="562" y="410" type="curve"/>
      <point x="551" y="480" type="line"/>
      <point x="539" y="544"/>
      <point x="511" y="599"/>
      <point x="481" y="640" type="curve"/>
      <point x="411" y="656"/>
      <point x="333" y="667"/>
      <point x="257" y="667" type="curve" smooth="yes"/>
      <point x="165" y="667"/>
      <point x="50" y="653"/>
      <point x="0" y="639" type="curve"/>
      <point x="-6" y="624"/>
      <point x="-9" y="601"/>
      <point x="-9" y="578" type="curve" smooth="yes"/>
      <point x="-9" y="550"/>
      <point x="-5" y="521"/>
      <point x="0" y="504" type="curve"/>
      <point x="58" y="518"/>
      <point x="166" y="529"/>
      <point x="247" y="529" type="curve" smooth="yes"/>
      <point x="301" y="529"/>
      <point x="365" y="525"/>
      <point x="391" y="521" type="curve" smooth="yes"/>
      <point x="430" y="515"/>
      <point x="465" y="484"/>
      <point x="465" y="440" type="curve" smooth="yes"/>
      <point x="465" y="405"/>
      <point x="449" y="381"/>
      <point x="416" y="381" type="curve" smooth="yes"/>
      <point x="359" y="381"/>
      <point x="304" y="432"/>
      <point x="302" y="549" type="curve"/>
      <point x="233" y="538" type="line"/>
      <point x="236" y="357"/>
      <point x="311" y="229"/>
      <point x="433" y="229" type="curve" smooth="yes"/>
    </contour>
  </outline>
</glyph>
<glyph name="bn_sh_ra" format="1">
  <advance width="686"/>
  <outline>
    <contour>
      <point x="535" y="-71"/>
      <point x="600" y="-53"/>
      <point x="638" y="-25" type="curve"/>
      <point x="622" y="41"/>
      <point x="613" y="161"/>
      <point x="613" y="288" type="curve" smooth="yes"/>
      <point x="613" y="352"/>
      <point x="614" y="386"/>
      <point x="621" y="450" type="curve" smooth="yes"/>
      <point x="623" y="471"/>
      <point x="631" y="487"/>
      <point x="654" y="494" type="curve" smooth="yes"/>
      <point x="667" y="498"/>
      <point x="677" y="501"/>
      <point x="686" y="504" type="curve"/>
      <point x="692" y="523"/>
      <point x="697" y="552"/>
      <point x="697" y="576" type="curve" smooth="yes"/>
      <point x="697" y="603"/>
      <point x="693" y="626"/>
      <point x="686" y="639" type="curve"/>
      <point x="646" y="632"/>
      <point x="607" y="623"/>
      <point x="567" y="608" type="curve" smooth="yes"/>
      <point x="531" y="596"/>
      <point x="511" y="561"/>
      <point x="503" y="524" type="curve" smooth="yes"/>
      <point x="501" y="513"/>
      <point x="498" y="501"/>
      <point x="496" y="489" type="curve"/>
      <point x="481" y="427" type="line"/>
      <point x="471" y="337"/>
      <point x="467" y="230"/>
      <point x="467" y="112" type="curve" smooth="yes"/>
      <point x="467" y="49"/>
      <point x="470" y="-12"/>
      <point x="478" y="-37" type="curve"/>
      <point x="517" y="-40" type="line"/>
      <point x="463" y="59"/>
      <point x="413" y="117"/>
      <point x="344" y="117" type="curve" smooth="yes"/>
      <point x="296" y="117"/>
      <point x="212" y="96"/>
      <point x="175" y="96" type="curve" smooth="yes"/>
      <point x="146" y="96"/>
      <point x="125" y="113"/>
      <point x="125" y="141" type="curve" smooth="yes"/>
      <point x="125" y="158"/>
      <point x="131" y="176"/>
      <point x="136" y="193" type="curve"/>
      <point x="111" y="203"/>
      <point x="74" y="210"/>
      <point x="37" y="210" type="curve"/>
      <point x="20" y="175"/>
      <point x="7" y="134"/>
      <point x="7" y="89" type="curve" smooth="yes"/>
      <point x="7" y="8"/>
      <point x="72" y="-45"/>
      <point x="175" y="-45" type="curve" smooth="yes"/>
      <point x="246" y="-45"/>
      <point x="306" y="-26"/>
      <point x="372" y="-26" type="curve" smooth="yes"/>
      <point x="426" y="-26"/>
      <point x="454" y="-47"/>
      <point x="477" y="-71" type="curve"/>
    </contour>
    <contour>
      <point x="215" y="230"/>
      <point x="272" y="309"/>
      <point x="272" y="381" type="curve" smooth="yes"/>
      <point x="272" y="422"/>
      <point x="253" y="463"/>
      <point x="230" y="491" type="curve"/>
      <point x="171" y="453" type="line"/>
      <point x="194" y="428"/>
      <point x="202" y="400"/>
      <point x="202" y="374" type="curve" smooth="yes"/>
      <point x="202" y="337"/>
      <point x="186" y="311"/>
      <point x="167" y="311" type="curve" smooth="yes"/>
      <point x="154" y="311"/>
      <point x="148" y="323"/>
      <point x="148" y="337" type="curve" smooth="yes"/>
      <point x="148" y="370"/>
      <point x="182" y="420"/>
      <point x="217" y="420" type="curve"/>
      <point x="259" y="467" type="line"/>
      <point x="201" y="520" type="line"/>
      <point x="112" y="520"/>
      <point x="24" y="440"/>
      <point x="24" y="346" type="curve" smooth="yes"/>
      <point x="24" y="275"/>
      <point x="74" y="230"/>
      <point x="135" y="230" type="curve" smooth="yes"/>
    </contour>
    <contour>
      <point x="250" y="496" type="line"/>
      <point x="233" y="604"/>
      <point x="186" y="647"/>
      <point x="114" y="647" type="curve" smooth="yes"/>
      <point x="69" y="647"/>
      <point x="31" y="644"/>
      <point x="-1" y="639" type="curve"/>
      <point x="-8" y="625"/>
      <point x="-11" y="601"/>
      <point x="-11" y="576" type="curve" smooth="yes"/>
      <point x="-11" y="552"/>
      <point x="-6" y="520"/>
      <point x="0" y="504" type="curve"/>
      <point x="21" y="509"/>
      <point x="50" y="514"/>
      <point x="92" y="514" type="curve"/>
      <point x="170" y="514"/>
      <point x="219" y="495"/>
      <point x="219" y="458" type="curve"/>
    </contour>
    <contour>
      <point x="397" y="226"/>
      <point x="448" y="272"/>
      <point x="448" y="346" type="curve" smooth="yes"/>
      <point x="448" y="428"/>
      <point x="385" y="494"/>
      <point x="298" y="507" type="curve"/>
      <point x="274" y="428" type="line"/>
      <point x="327" y="426"/>
      <point x="373" y="386"/>
      <point x="373" y="344" type="curve" smooth="yes"/>
      <point x="373" y="327"/>
      <point x="365" y="319"/>
      <point x="355" y="319" type="curve" smooth="yes"/>
      <point x="332" y="319"/>
      <point x="314" y="356"/>
      <point x="314" y="392" type="curve" smooth="yes"/>
      <point x="314" y="414"/>
      <point x="321" y="434"/>
      <point x="338" y="444" type="curve"/>
      <point x="280" y="504" type="line"/>
      <point x="242" y="475"/>
      <point x="206" y="427"/>
      <point x="206" y="366" type="curve" smooth="yes"/>
      <point x="206" y="296"/>
      <point x="254" y="226"/>
      <point x="333" y="226" type="curve" smooth="yes"/>
    </contour>
    <contour>
      <point x="525" y="518"/>
      <point x="463" y="659"/>
      <point x="370" y="659" type="curve" smooth="yes"/>
      <point x="296" y="659"/>
      <point x="239" y="579"/>
      <point x="225" y="473" type="curve"/>
      <point x="296" y="427" type="line"/>
      <point x="315" y="459"/>
      <point x="341" y="498"/>
      <point x="386" y="498" type="curve" smooth="yes"/>
      <point x="435" y="498"/>
      <point x="478" y="454"/>
      <point x="478" y="390" type="curve"/>
      <point x="518" y="331" type="line"/>
    </contour>
  </outline>
</glyph>
<glyph name="bn_sh_ra_iikaar" format="1">
  <advance width="974"/>
  <outline>
    <contour>
      <point x="535" y="-71"/>
      <point x="600" y="-53"/>
      <point x="638" y="-25" type="curve"/>
      <point x="622" y="41"/>
      <point x="613" y="161"/>
      <point x="613" y="288" type="curve" smooth="yes"/>
      <point x="612" y="557"/>
      <point x="655" y="601"/>
      <point x="655" y="682" type="curve" smooth="yes"/>
      <point x="655" y="753"/>
      <point x="596" y="801"/>
      <point x="534" y="801" type="curve" smooth="yes"/>
      <point x="469" y="801"/>
      <point x="434" y="783"/>
      <point x="352" y="783" type="curve" smooth="yes"/>
      <point x="319" y="783"/>
      <point x="286" y="788"/>
      <point x="286" y="807" type="curve" smooth="yes"/>
      <point x="286" y="829"/>
      <point x="332" y="843"/>
      <point x="409" y="843" type="curve" smooth="yes"/>
      <point x="679" y="843"/>
      <point x="768" y="782"/>
      <point x="768" y="473" type="curve"/>
      <point x="912" y="485" type="line"/>
      <point x="912" y="781"/>
      <point x="701" y="977"/>
      <point x="415" y="977" type="curve" smooth="yes"/>
      <point x="275" y="977"/>
      <point x="193" y="918"/>
      <point x="193" y="820" type="curve" smooth="yes"/>
      <point x="193" y="733"/>
      <point x="258" y="682"/>
      <point x="347" y="682" type="curve" smooth="yes"/>
      <point x="415" y="682"/>
      <point x="467" y="713"/>
      <point x="506" y="713" type="curve" smooth="yes"/>
      <point x="535" y="713"/>
      <point x="557" y="704"/>
      <point x="557" y="679" type="curve" smooth="yes"/>
      <point x="557" y="620"/>
      <point x="491" y="555"/>
      <point x="478" y="393" type="curve" smooth="yes"/>
      <point x="471" y="319"/>
      <point x="467" y="227"/>
      <point x="467" y="112" type="curve" smooth="yes"/>
      <point x="467" y="49"/>
      <point x="470" y="-12"/>
      <point x="478" y="-37" type="curve"/>
      <point x="517" y="-40" type="line"/>
      <point x="463" y="59"/>
      <point x="413" y="117"/>
      <point x="344" y="117" type="curve" smooth="yes"/>
      <point x="296" y="117"/>
      <point x="214" y="96"/>
      <point x="177" y="96" type="curve" smooth="yes"/>
      <point x="148" y="96"/>
      <point x="127" y="113"/>
      <point x="127" y="141" type="curve" smooth="yes"/>
      <point x="127" y="158"/>
      <point x="133" y="176"/>
      <point x="138" y="193" type="curve"/>
      <point x="113" y="203"/>
      <point x="74" y="210"/>
      <point x="37" y="210" type="curve"/>
      <point x="20" y="175"/>
      <point x="7" y="134"/>
      <point x="7" y="89" type="curve" smooth="yes"/>
      <point x="7" y="8"/>
      <point x="72" y="-45"/>
      <point x="175" y="-45" type="curve" smooth="yes"/>
      <point x="246" y="-45"/>
      <point x="306" y="-26"/>
      <point x="372" y="-26" type="curve" smooth="yes"/>
      <point x="426" y="-26"/>
      <point x="454" y="-47"/>
      <point x="477" y="-71" type="curve"/>
    </contour>
    <contour>
      <point x="215" y="230"/>
      <point x="272" y="309"/>
      <point x="272" y="381" type="curve" smooth="yes"/>
      <point x="272" y="422"/>
      <point x="253" y="463"/>
      <point x="230" y="491" type="curve"/>
      <point x="171" y="453" type="line"/>
      <point x="194" y="428"/>
      <point x="202" y="400"/>
      <point x="202" y="374" type="curve" smooth="yes"/>
      <point x="202" y="337"/>
      <point x="186" y="311"/>
      <point x="167" y="311" type="curve" smooth="yes"/>
      <point x="154" y="311"/>
      <point x="148" y="323"/>
      <point x="148" y="337" type="curve" smooth="yes"/>
      <point x="148" y="370"/>
      <point x="182" y="420"/>
      <point x="217" y="420" type="curve"/>
      <point x="259" y="467" type="line"/>
      <point x="201" y="520" type="line"/>
      <point x="112" y="520"/>
      <point x="24" y="440"/>
      <point x="24" y="346" type="curve" smooth="yes"/>
      <point x="24" y="275"/>
      <point x="74" y="230"/>
      <point x="135" y="230" type="curve" smooth="yes"/>
    </contour>
    <contour>
      <point x="250" y="496" type="line"/>
      <point x="233" y="604"/>
      <point x="186" y="647"/>
      <point x="114" y="647" type="curve" smooth="yes"/>
      <point x="69" y="647"/>
      <point x="31" y="644"/>
      <point x="-1" y="639" type="curve"/>
      <point x="-8" y="625"/>
      <point x="-11" y="601"/>
      <point x="-11" y="576" type="curve" smooth="yes"/>
      <point x="-11" y="552"/>
      <point x="-6" y="520"/>
      <point x="0" y="504" type="curve"/>
      <point x="21" y="509"/>
      <point x="50" y="514"/>
      <point x="92" y="514" type="curve"/>
      <point x="170" y="514"/>
      <point x="219" y="495"/>
      <point x="219" y="458" type="curve"/>
    </contour>
    <contour>
      <point x="397" y="226"/>
      <point x="448" y="272"/>
      <point x="448" y="346" type="curve" smooth="yes"/>
      <point x="448" y="428"/>
      <point x="385" y="494"/>
      <point x="298" y="507" type="curve"/>
      <point x="274" y="428" type="line"/>
      <point x="327" y="426"/>
      <point x="373" y="386"/>
      <point x="373" y="344" type="curve" smooth="yes"/>
      <point x="373" y="327"/>
      <point x="365" y="319"/>
      <point x="355" y="319" type="curve" smooth="yes"/>
      <point x="332" y="319"/>
      <point x="314" y="356"/>
      <point x="314" y="392" type="curve" smooth="yes"/>
      <point x="314" y="414"/>
      <point x="321" y="434"/>
      <point x="338" y="444" type="curve"/>
      <point x="280" y="504" type="line"/>
      <point x="242" y="475"/>
      <point x="206" y="427"/>
      <point x="206" y="366" type="curve" smooth="yes"/>
      <point x="206" y="296"/>
      <point x="254" y="226"/>
      <point x="333" y="226" type="curve" smooth="yes"/>
    </contour>
    <contour>
      <point x="525" y="518"/>
      <point x="463" y="659"/>
      <point x="370" y="659" type="curve" smooth="yes"/>
      <point x="296" y="659"/>
      <point x="239" y="579"/>
      <point x="225" y="473" type="curve"/>
      <point x="296" y="427" type="line"/>
      <point x="315" y="459"/>
      <point x="341" y="498"/>
      <point x="386" y="498" type="curve" smooth="yes"/>
      <point x="435" y="498"/>
      <point x="478" y="454"/>
      <point x="478" y="390" type="curve"/>
      <point x="518" y="331" type="line"/>
    </contour>
    <contour>
      <point x="903" y="116"/>
      <point x="915" y="312"/>
      <point x="913" y="488" type="curve"/>
      <point x="797" y="477" type="line"/>
      <point x="768" y="473" type="line"/>
      <point x="766" y="259"/>
      <point x="748" y="100"/>
      <point x="710" y="-45" type="curve"/>
      <point x="751" y="-60"/>
      <point x="824" y="-72"/>
      <point x="879" y="-72" type="curve"/>
    </contour>
    <contour>
      <point x="907" y="473"/>
      <point x="935" y="497"/>
      <point x="974" y="504" type="curve"/>
      <point x="989" y="550"/>
      <point x="989" y="618"/>
      <point x="974" y="639" type="curve"/>
      <point x="880" y="622"/>
      <point x="807" y="571"/>
      <point x="775" y="500" type="curve"/>
      <point x="892" y="434" type="line"/>
    </contour>
  </outline>
</glyph>
<glyph name="bn_sha_ukaar" format="1">
  <advance width="874"/>
  <outline>
    <contour>
      <point x="752" y="-84"/>
      <point x="841" y="-1"/>
      <point x="841" y="105" type="curve" smooth="yes"/>
      <point x="841" y="169"/>
      <point x="810" y="240"/>
      <point x="746" y="281" type="curve"/>
      <point x="676" y="214" type="line"/>
      <point x="702" y="202"/>
      <point x="719" y="178"/>
      <point x="719" y="150" type="curve" smooth="yes"/>
      <point x="719" y="112"/>
      <point x="682" y="87"/>
      <point x="606" y="87" type="curve" smooth="yes"/>
      <point x="382" y="87"/>
      <point x="215" y="302"/>
      <point x="123" y="559" type="curve"/>
      <point x="87" y="548"/>
      <point x="49" y="535"/>
      <point x="11" y="517" type="curve"/>
      <point x="95" y="245"/>
      <point x="238" y="-84"/>
      <point x="591" y="-84" type="curve" smooth="yes"/>
    </contour>
    <contour>
      <point x="400" y="305"/>
      <point x="447" y="375"/>
      <point x="447" y="439" type="curve" smooth="yes"/>
      <point x="447" y="477"/>
      <point x="432" y="513"/>
      <point x="412" y="538" type="curve"/>
      <point x="360" y="504" type="line"/>
      <point x="381" y="481"/>
      <point x="389" y="457"/>
      <point x="389" y="434" type="curve" smooth="yes"/>
      <point x="389" y="400"/>
      <point x="377" y="378"/>
      <point x="364" y="378" type="curve" smooth="yes"/>
      <point x="355" y="378"/>
      <point x="350" y="387"/>
      <point x="350" y="400" type="curve" smooth="yes"/>
      <point x="350" y="430"/>
      <point x="377" y="475"/>
      <point x="400" y="475" type="curve"/>
      <point x="438" y="517" type="line"/>
      <point x="389" y="563" type="line"/>
      <point x="318" y="563"/>
      <point x="244" y="492"/>
      <point x="244" y="408" type="curve" smooth="yes"/>
      <point x="244" y="345"/>
      <point x="286" y="305"/>
      <point x="336" y="305" type="curve" smooth="yes"/>
    </contour>
    <contour>
      <point x="263" y="538"/>
      <point x="290" y="566"/>
      <point x="329" y="566" type="curve" smooth="yes"/>
      <point x="373" y="566"/>
      <point x="407" y="547"/>
      <point x="407" y="514" type="curve"/>
      <point x="430" y="545" type="line"/>
      <point x="412" y="641"/>
      <point x="367" y="681"/>
      <point x="290" y="681" type="curve" smooth="yes"/>
      <point x="238" y="681"/>
      <point x="183" y="644"/>
      <point x="159" y="594" type="curve"/>
      <point x="172" y="566"/>
      <point x="206" y="527"/>
      <point x="237" y="508" type="curve"/>
    </contour>
    <contour>
      <point x="548" y="306"/>
      <point x="591" y="347"/>
      <point x="591" y="413" type="curve" smooth="yes"/>
      <point x="591" y="485"/>
      <point x="538" y="544"/>
      <point x="469" y="556" type="curve"/>
      <point x="453" y="486" type="line"/>
      <point x="494" y="484"/>
      <point x="529" y="449"/>
      <point x="529" y="411" type="curve" smooth="yes"/>
      <point x="529" y="395"/>
      <point x="522" y="390"/>
      <point x="516" y="390" type="curve" smooth="yes"/>
      <point x="499" y="390"/>
      <point x="486" y="421"/>
      <point x="486" y="454" type="curve" smooth="yes"/>
      <point x="486" y="474"/>
      <point x="492" y="492"/>
      <point x="505" y="500" type="curve"/>
      <point x="457" y="554" type="line"/>
      <point x="423" y="528"/>
      <point x="392" y="485"/>
      <point x="392" y="431" type="curve" smooth="yes"/>
      <point x="392" y="368"/>
      <point x="433" y="306"/>
      <point x="499" y="306" type="curve" smooth="yes"/>
    </contour>
    <contour>
      <point x="712" y="147"/>
      <point x="752" y="182"/>
      <point x="774" y="238" type="curve"/>
      <point x="709" y="307" type="line"/>
      <point x="693" y="284"/>
      <point x="674" y="263"/>
      <point x="655" y="263" type="curve" smooth="yes"/>
      <point x="640" y="263"/>
      <point x="631" y="273"/>
      <point x="631" y="285" type="curve" smooth="yes"/>
      <point x="631" y="299"/>
      <point x="644" y="310"/>
      <point x="657" y="310" type="curve" smooth="yes"/>
      <point x="679" y="310"/>
      <point x="696" y="283"/>
      <point x="700" y="236" type="curve"/>
      <point x="745" y="314" type="line"/>
      <point x="740" y="343"/>
      <point x="704" y="372"/>
      <point x="664" y="372" type="curve" smooth="yes"/>
      <point x="613" y="372"/>
      <point x="561" y="328"/>
      <point x="561" y="253" type="curve" smooth="yes"/>
      <point x="561" y="190"/>
      <point x="608" y="147"/>
      <point x="664" y="147" type="curve" smooth="yes"/>
    </contour>
    <contour>
      <point x="834" y="238"/>
      <point x="880" y="329"/>
      <point x="880" y="417" type="curve" smooth="yes"/>
      <point x="880" y="512"/>
      <point x="825" y="546"/>
      <point x="825" y="649" type="curve"/>
      <point x="778" y="665"/>
      <point x="745" y="669"/>
      <point x="700" y="669" type="curve"/>
      <point x="660" y="629"/>
      <point x="623" y="578"/>
      <point x="595" y="516" type="curve"/>
      <point x="626" y="492" type="line"/>
      <point x="630" y="596"/>
      <point x="581" y="685"/>
      <point x="520" y="685" type="curve" smooth="yes"/>
      <point x="462" y="685"/>
      <point x="415" y="617"/>
      <point x="403" y="527" type="curve"/>
      <point x="468" y="489" type="line"/>
      <point x="483" y="516"/>
      <point x="503" y="549"/>
      <point x="537" y="549" type="curve" smooth="yes"/>
      <point x="585" y="549"/>
      <point x="618" y="492"/>
      <point x="620" y="421" type="curve"/>
      <point x="638" y="405"/>
      <point x="660" y="396"/>
      <point x="685" y="391" type="curve"/>
      <point x="709" y="445"/>
      <point x="765" y="510"/>
      <point x="809" y="542" type="curve"/>
      <point x="776" y="569" type="line"/>
      <point x="775" y="536"/>
      <point x="783" y="496"/>
      <point x="783" y="470" type="curve" smooth="yes"/>
      <point x="783" y="399"/>
      <point x="752" y="346"/>
      <point x="697" y="313" type="curve"/>
      <point x="720" y="247" type="line"/>
      <point x="757" y="197" type="line"/>
    </contour>
  </outline>
</glyph>
<glyph name="bn_ss_pa" format="1">
  <advance width="1011"/>
  <outline>
    <contour>
      <point x="858" y="-37"/>
      <point x="923" y="-34"/>
      <point x="969" y="-24" type="curve"/>
      <point x="949" y="42"/>
      <point x="938" y="154"/>
      <point x="938" y="302" type="curve" smooth="yes"/>
      <point x="938" y="346"/>
      <point x="939" y="386"/>
      <point x="946" y="450" type="curve" smooth="yes"/>
      <point x="948" y="471"/>
      <point x="956" y="485"/>
      <point x="978" y="494" type="curve" smooth="yes"/>
      <point x="988" y="498"/>
      <point x="1002" y="502"/>
      <point x="1011" y="504" type="curve"/>
      <point x="1017" y="523"/>
      <point x="1022" y="551"/>
      <point x="1022" y="578" type="curve" smooth="yes"/>
      <point x="1022" y="602"/>
      <point x="1018" y="626"/>
      <point x="1011" y="639" type="curve"/>
      <point x="973" y="633"/>
      <point x="914" y="618"/>
      <point x="886" y="607" type="curve" smooth="yes"/>
      <point x="846" y="591"/>
      <point x="833" y="564"/>
      <point x="822" y="523" type="curve" smooth="yes"/>
      <point x="796" y="424"/>
      <point x="792" y="274"/>
      <point x="792" y="173" type="curve" smooth="yes"/>
      <point x="792" y="86"/>
      <point x="795" y="3"/>
      <point x="804" y="-37" type="curve"/>
    </contour>
    <contour>
      <point x="358" y="201"/>
      <point x="473" y="356"/>
      <point x="473" y="486" type="curve" smooth="yes"/>
      <point x="473" y="588"/>
      <point x="398" y="667"/>
      <point x="243" y="667" type="curve" smooth="yes"/>
      <point x="176" y="667"/>
      <point x="64" y="654"/>
      <point x="0" y="639" type="curve"/>
      <point x="-6" y="624"/>
      <point x="-9" y="601"/>
      <point x="-9" y="578" type="curve" smooth="yes"/>
      <point x="-9" y="550"/>
      <point x="-5" y="521"/>
      <point x="0" y="504" type="curve"/>
      <point x="49" y="514"/>
      <point x="96" y="522"/>
      <point x="158" y="527" type="curve"/>
      <point x="155" y="595" type="line"/>
      <point x="89" y="538"/>
      <point x="44" y="453"/>
      <point x="44" y="366" type="curve" smooth="yes"/>
      <point x="44" y="271"/>
      <point x="120" y="201"/>
      <point x="220" y="201" type="curve" smooth="yes"/>
    </contour>
    <contour>
      <point x="848" y="504"/>
      <point x="762" y="657"/>
      <point x="614" y="657" type="curve" smooth="yes"/>
      <point x="526" y="657"/>
      <point x="438" y="602"/>
      <point x="373" y="518" type="curve"/>
      <point x="417" y="394" type="line"/>
      <point x="467" y="394"/>
      <point x="515" y="373"/>
      <point x="515" y="327" type="curve" smooth="yes"/>
      <point x="515" y="312"/>
      <point x="510" y="294"/>
      <point x="493" y="281" type="curve"/>
      <point x="572" y="343" type="line"/>
      <point x="586" y="352"/>
      <point x="596" y="374"/>
      <point x="596" y="397" type="curve" smooth="yes"/>
      <point x="596" y="434"/>
      <point x="571" y="468"/>
      <point x="532" y="488" type="curve"/>
      <point x="514" y="425" type="line"/>
      <point x="558" y="489"/>
      <point x="592" y="514"/>
      <point x="639" y="514" type="curve" smooth="yes"/>
      <point x="714" y="514"/>
      <point x="800" y="449"/>
      <point x="800" y="326" type="curve"/>
      <point x="848" y="294" type="line"/>
    </contour>
    <contour>
      <point x="684" y="221"/>
      <point x="776" y="319"/>
      <point x="821" y="410" type="curve"/>
      <point x="760" y="541" type="line"/>
      <point x="674" y="425"/>
      <point x="571" y="340"/>
      <point x="476" y="269" type="curve"/>
      <point x="503" y="217"/>
      <point x="540" y="173"/>
      <point x="589" y="139" type="curve"/>
    </contour>
    <contour>
      <point x="415" y="376" type="line"/>
      <point x="326" y="415"/>
      <point x="215" y="493"/>
      <point x="147" y="562" type="curve"/>
      <point x="97" y="493" type="line"/>
      <point x="167" y="426"/>
      <point x="278" y="348"/>
      <point x="365" y="306" type="curve"/>
    </contour>
    <contour>
      <point x="176" y="302"/>
      <point x="161" y="315"/>
      <point x="161" y="339" type="curve" smooth="yes"/>
      <point x="161" y="401"/>
      <point x="249" y="546"/>
      <point x="312" y="546" type="curve" smooth="yes"/>
      <point x="331" y="546"/>
      <point x="346" y="532"/>
      <point x="346" y="507" type="curve" smooth="yes"/>
      <point x="346" y="445"/>
      <point x="257" y="302"/>
      <point x="194" y="302" type="curve" smooth="yes"/>
    </contour>
  </outline>
</glyph>
<glyph name="bn_ss_tta" format="1">
  <advance width="565"/>
  <outline>
    <contour>
      <point x="421" y="-94"/>
      <point x="562" y="-17"/>
      <point x="562" y="87" type="curve" smooth="yes"/>
      <point x="562" y="155"/>
      <point x="502" y="195"/>
      <point x="419" y="195" type="curve" smooth="yes"/>
      <point x="406" y="195"/>
      <point x="394" y="194"/>
      <point x="384" y="192" type="curve"/>
      <point x="361" y="168"/>
      <point x="337" y="118"/>
      <point x="337" y="79" type="curve" smooth="yes"/>
      <point x="337" y="71"/>
      <point x="338" y="66"/>
      <point x="339" y="64" type="curve"/>
      <point x="351" y="70"/>
      <point x="361" y="75"/>
      <point x="372" y="75" type="curve" smooth="yes"/>
      <point x="385" y="75"/>
      <point x="393" y="69"/>
      <point x="393" y="57" type="curve" smooth="yes"/>
      <point x="393" y="30"/>
      <point x="333" y="0"/>
      <point x="280" y="2" type="curve" smooth="yes"/>
      <point x="255" y="3"/>
      <point x="239" y="9"/>
      <point x="239" y="29" type="curve" smooth="yes"/>
      <point x="239" y="53"/>
      <point x="262" y="81"/>
      <point x="283" y="107" type="curve" smooth="yes"/>
      <point x="331" y="166"/>
      <point x="376" y="224"/>
      <point x="426" y="289" type="curve" smooth="yes"/>
      <point x="473" y="350"/>
      <point x="497" y="416"/>
      <point x="497" y="478" type="curve" smooth="yes"/>
      <point x="497" y="588"/>
      <point x="423" y="667"/>
      <point x="247" y="667" type="curve" smooth="yes"/>
      <point x="175" y="667"/>
      <point x="69" y="654"/>
      <point x="0" y="639" type="curve"/>
      <point x="-6" y="624"/>
      <point x="-9" y="601"/>
      <point x="-9" y="578" type="curve" smooth="yes"/>
      <point x="-9" y="550"/>
      <point x="-5" y="521"/>
      <point x="0" y="504" type="curve"/>
      <point x="54" y="514"/>
      <point x="104" y="522"/>
      <point x="173" y="527" type="curve"/>
      <point x="173" y="597" type="line"/>
      <point x="107" y="540"/>
      <point x="60" y="455"/>
      <point x="60" y="368" type="curve" smooth="yes"/>
      <point x="60" y="270"/>
      <point x="140" y="194"/>
      <point x="242" y="194" type="curve" smooth="yes"/>
      <point x="276" y="194"/>
      <point x="308" y="203"/>
      <point x="337" y="219" type="curve"/>
      <point x="234" y="230" type="line"/>
      <point x="208" y="208"/>
      <point x="170" y="177"/>
      <point x="154" y="163" type="curve" smooth="yes"/>
      <point x="107" y="122"/>
      <point x="84" y="83"/>
      <point x="84" y="37" type="curve" smooth="yes"/>
      <point x="84" y="-54"/>
      <point x="173" y="-94"/>
      <point x="277" y="-94" type="curve" smooth="yes"/>
    </contour>
    <contour>
      <point x="198" y="304"/>
      <point x="183" y="317"/>
      <point x="183" y="341" type="curve" smooth="yes"/>
      <point x="183" y="403"/>
      <point x="271" y="548"/>
      <point x="334" y="548" type="curve" smooth="yes"/>
      <point x="353" y="548"/>
      <point x="368" y="534"/>
      <point x="368" y="509" type="curve" smooth="yes"/>
      <point x="368" y="447"/>
      <point x="279" y="304"/>
      <point x="216" y="304" type="curve" smooth="yes"/>
    </contour>
    <contour>
      <point x="437" y="378" type="line"/>
      <point x="348" y="417"/>
      <point x="237" y="495"/>
      <point x="169" y="564" type="curve"/>
      <point x="119" y="495" type="line"/>
      <point x="189" y="428"/>
      <point x="300" y="350"/>
      <point x="387" y="308" type="curve"/>
    </contour>
    <contour>
      <point x="435" y="739"/>
      <point x="384" y="855"/>
      <point x="270" y="855" type="curve" smooth="yes"/>
      <point x="231" y="855"/>
      <point x="170" y="841"/>
      <point x="133" y="841" type="curve" smooth="yes"/>
      <point x="85" y="841"/>
      <point x="67" y="865"/>
      <point x="41" y="912" type="curve"/>
      <point x="16" y="897"/>
      <point x="-21" y="873"/>
      <point x="-49" y="842" type="curve"/>
      <point x="-23" y="775"/>
      <point x="33" y="714"/>
      <point x="115" y="714" type="curve" smooth="yes"/>
      <point x="155" y="714"/>
      <point x="238" y="728"/>
      <point x="271" y="728" type="curve" smooth="yes"/>
      <point x="339" y="728"/>
      <point x="357" y="671"/>
      <point x="363" y="609" type="curve"/>
      <point x="448" y="588" type="line"/>
    </contour>
    <contour>
      <point x="462" y="479"/>
      <point x="524" y="495"/>
      <point x="565" y="504" type="curve"/>
      <point x="571" y="523"/>
      <point x="576" y="551"/>
      <point x="576" y="578" type="curve" smooth="yes"/>
      <point x="576" y="602"/>
      <point x="572" y="626"/>
      <point x="565" y="639" type="curve"/>
      <point x="516" y="630"/>
      <point x="443" y="611"/>
      <point x="407" y="595" type="curve"/>
      <point x="419" y="459" type="line"/>
    </contour>
  </outline>
</glyph>
<glyph name="bn_t_ba" format="1">
  <advance width="631"/>
  <outline>
    <contour>
      <point x="544" y="5"/>
      <point x="613" y="93"/>
      <point x="613" y="216" type="curve" smooth="yes"/>
      <point x="613" y="372"/>
      <point x="505" y="502"/>
      <point x="390" y="502" type="curve" smooth="yes"/>
      <point x="306" y="502"/>
      <point x="250" y="433"/>
      <point x="250" y="347" type="curve" smooth="yes"/>
      <point x="250" y="326"/>
      <point x="254" y="306"/>
      <point x="263" y="283" type="curve"/>
      <point x="279" y="270"/>
      <point x="322" y="263"/>
      <point x="353" y="263" type="curve" smooth="yes"/>
      <point x="379" y="263"/>
      <point x="409" y="267"/>
      <point x="424" y="274" type="curve"/>
      <point x="406" y="301"/>
      <point x="399" y="315"/>
      <point x="399" y="326" type="curve" smooth="yes"/>
      <point x="399" y="350"/>
      <point x="412" y="366"/>
      <point x="434" y="366" type="curve" smooth="yes"/>
      <point x="465" y="366"/>
      <point x="500" y="338"/>
      <point x="500" y="274" type="curve" smooth="yes"/>
      <point x="500" y="215"/>
      <point x="464" y="179"/>
      <point x="396" y="179" type="curve" smooth="yes"/>
      <point x="270" y="179"/>
      <point x="159" y="350"/>
      <point x="112" y="459" type="curve"/>
      <point x="77" y="446"/>
      <point x="42" y="432"/>
      <point x="10" y="414" type="curve"/>
      <point x="66" y="244"/>
      <point x="175" y="5"/>
      <point x="407" y="5" type="curve" smooth="yes"/>
    </contour>
    <contour>
      <point x="79" y="518"/>
      <point x="195" y="531"/>
      <point x="317" y="531" type="curve" smooth="yes"/>
      <point x="439" y="531"/>
      <point x="555" y="518"/>
      <point x="634" y="504" type="curve"/>
      <point x="640" y="521"/>
      <point x="645" y="551"/>
      <point x="645" y="580" type="curve" smooth="yes"/>
      <point x="645" y="603"/>
      <point x="642" y="626"/>
      <point x="634" y="639" type="curve"/>
      <point x="556" y="656"/>
      <point x="441" y="670"/>
      <point x="317" y="670" type="curve" smooth="yes"/>
      <point x="193" y="670"/>
      <point x="77" y="656"/>
      <point x="0" y="639" type="curve"/>
      <point x="-7" y="626"/>
      <point x="-11" y="604"/>
      <point x="-11" y="580" type="curve" smooth="yes"/>
      <point x="-11" y="549"/>
      <point x="-6" y="522"/>
      <point x="0" y="504" type="curve"/>
    </contour>
    <contour>
      <point x="431" y="-199" type="line"/>
      <point x="405" y="-132"/>
      <point x="328" y="-67"/>
      <point x="254" y="-23" type="curve"/>
      <point x="237" y="-76" type="line"/>
      <point x="302" y="-30"/>
      <point x="397" y="3"/>
      <point x="474" y="18" type="curve"/>
      <point x="380" y="151" type="line"/>
      <point x="277" y="121"/>
      <point x="199" y="87"/>
      <point x="139" y="39" type="curve"/>
      <point x="139" y="-22"/>
      <point x="155" y="-73"/>
      <point x="188" y="-131" type="curve"/>
      <point x="266" y="-139"/>
      <point x="352" y="-185"/>
      <point x="399" y="-259" type="curve"/>
    </contour>
    <contour>
      <point x="445" y="-261"/>
      <point x="508" y="-256"/>
      <point x="550" y="-232" type="curve"/>
      <point x="539" y="-193"/>
      <point x="533" y="-145"/>
      <point x="533" y="-81" type="curve" smooth="yes"/>
      <point x="533" y="-28"/>
      <point x="539" y="52"/>
      <point x="548" y="112" type="curve"/>
      <point x="439" y="125" type="line"/>
      <point x="412" y="21"/>
      <point x="396" y="-110"/>
      <point x="396" y="-213" type="curve" smooth="yes"/>
      <point x="396" y="-230"/>
      <point x="397" y="-247"/>
      <point x="399" y="-259" type="curve"/>
    </contour>
  </outline>
</glyph>
<glyph name="bn_t_ra" format="1">
  <advance width="582"/>
  <outline>
    <contour>
      <point x="427" y="-99"/>
      <point x="473" y="-92"/>
      <point x="510" y="-80" type="curve"/>
      <point x="524" y="43"/>
      <point x="531" y="175"/>
      <point x="531" y="340" type="curve" smooth="yes"/>
      <point x="531" y="444"/>
      <point x="455" y="507"/>
      <point x="370" y="507" type="curve" smooth="yes"/>
      <point x="258" y="507"/>
      <point x="158" y="395"/>
      <point x="158" y="289" type="curve" smooth="yes"/>
      <point x="158" y="203"/>
      <point x="224" y="157"/>
      <point x="292" y="157" type="curve" smooth="yes"/>
      <point x="310" y="157"/>
      <point x="326" y="161"/>
      <point x="335" y="164" type="curve"/>
      <point x="353" y="191"/>
      <point x="366" y="244"/>
      <point x="366" y="282" type="curve" smooth="yes"/>
      <point x="366" y="290"/>
      <point x="365" y="296"/>
      <point x="365" y="298" type="curve"/>
      <point x="356" y="292"/>
      <point x="344" y="288"/>
      <point x="334" y="288" type="curve" smooth="yes"/>
      <point x="319" y="288"/>
      <point x="312" y="296"/>
      <point x="312" y="313" type="curve" smooth="yes"/>
      <point x="312" y="347"/>
      <point x="349" y="410"/>
      <point x="382" y="410" type="curve" smooth="yes"/>
      <point x="393" y="410"/>
      <point x="399" y="402"/>
      <point x="399" y="385" type="curve" smooth="yes"/>
      <point x="399" y="250"/>
      <point x="387" y="98"/>
      <point x="362" y="-4" type="curve"/>
      <point x="398" y="-55" type="line"/>
      <point x="373" y="70"/>
      <point x="345" y="122"/>
      <point x="291" y="122" type="curve" smooth="yes"/>
      <point x="254" y="122"/>
      <point x="211" y="97"/>
      <point x="182" y="97" type="curve" smooth="yes"/>
      <point x="164" y="97"/>
      <point x="152" y="106"/>
      <point x="152" y="129" type="curve" smooth="yes"/>
      <point x="152" y="144"/>
      <point x="156" y="166"/>
      <point x="166" y="189" type="curve"/>
      <point x="139" y="198"/>
      <point x="101" y="203"/>
      <point x="54" y="204" type="curve"/>
      <point x="37" y="162"/>
      <point x="26" y="112"/>
      <point x="26" y="69" type="curve" smooth="yes"/>
      <point x="26" y="-17"/>
      <point x="73" y="-68"/>
      <point x="146" y="-68" type="curve" smooth="yes"/>
      <point x="206" y="-68"/>
      <point x="262" y="-33"/>
      <point x="312" y="-33" type="curve" smooth="yes"/>
      <point x="362" y="-33"/>
      <point x="372" y="-69"/>
      <point x="389" y="-99" type="curve"/>
    </contour>
    <contour>
      <point x="586" y="522"/>
      <point x="590" y="550"/>
      <point x="590" y="577" type="curve" smooth="yes"/>
      <point x="590" y="600"/>
      <point x="588" y="622"/>
      <point x="582" y="639" type="curve"/>
      <point x="527" y="656"/>
      <point x="387" y="670"/>
      <point x="288" y="670" type="curve" smooth="yes"/>
      <point x="171" y="670"/>
      <point x="69" y="656"/>
      <point x="0" y="639" type="curve"/>
      <point x="-7" y="626"/>
      <point x="-10" y="604"/>
      <point x="-10" y="581" type="curve" smooth="yes"/>
      <point x="-10" y="553"/>
      <point x="-6" y="523"/>
      <point x="0" y="504" type="curve"/>
      <point x="70" y="518"/>
      <point x="168" y="531"/>
      <point x="284" y="531" type="curve" smooth="yes"/>
      <point x="381" y="531"/>
      <point x="519" y="517"/>
      <point x="581" y="503" type="curve"/>
    </contour>
  </outline>
</glyph>
